<svg xmlns="http://www.w3.org/2000/svg" width="58.982" height="23.596" viewBox="0 0 58.982 23.596">
  <g id="vintage-line-elegant-calligraphy-divider-and-separator-swirl-and-corner-decorative-ornament-floral-line-filigree-design-element-flourish-curl-element-for-invitation-or-menu-page-illustration-vector" transform="translate(0 0.002)">
    <path id="Path_2316" data-name="Path 2316" d="M4.327,15.467l-.058-.058a.79.79,0,0,0-.173-.4,3.457,3.457,0,0,1,.2-2.88.512.512,0,0,0-.441.212,6.591,6.591,0,0,0-2.209,4.816,4.593,4.593,0,0,0,1.458,3.54A6.906,6.906,0,0,0,5.12,22.049a9.376,9.376,0,0,0,6.98.254,33.919,33.919,0,0,0,7.773-3.881c2.875-1.873,5.54-4.029,8.248-6.126.086-.067.169-.138.253-.208l1.1-.843.005,0a.979.979,0,0,0,.336-.256l.1-.074a.2.2,0,0,0,.14-.1.062.062,0,0,0,.034-.086H30.1c.152.036.221-.1.314-.166A43.19,43.19,0,0,1,36.756,6.6a22.67,22.67,0,0,1,10.19-2.47,14.38,14.38,0,0,1,7.044,1.683,9.557,9.557,0,0,1,4.536,4.978,5.889,5.889,0,0,1,.294,3.606,5.139,5.139,0,0,1-5.876,3.535,2.273,2.273,0,0,1-1.5-1.194.8.8,0,0,1,.243-1.092,1.118,1.118,0,0,1,1.85.658.626.626,0,0,1-.237.705c-.048.035-.136.06-.115.134s.114.076.184.087A1.418,1.418,0,0,0,54.366,17a3.83,3.83,0,0,0,1.611-2.146,5.661,5.661,0,0,0-.417-4.515,9.237,9.237,0,0,0-6.308-4.852,13.365,13.365,0,0,0-6.434.086,26.4,26.4,0,0,0-8.009,3.466,74.913,74.913,0,0,0-6.2,4.466c-2.482,1.928-4.951,3.875-7.611,5.56a33.793,33.793,0,0,1-8.136,3.888,12.661,12.661,0,0,1-8.47-.167,8.464,8.464,0,0,1-2.821-1.757A4.624,4.624,0,0,1,.1,16.567a7.634,7.634,0,0,1,3.884-5.374,3.59,3.59,0,0,1,1.243-.41.636.636,0,0,1,.7.976,3.279,3.279,0,0,0,.146,3.416,3.2,3.2,0,0,0,2.3,1.391,7.557,7.557,0,0,0,4.658-.769,10.423,10.423,0,0,0,5.531-6.184,7.553,7.553,0,0,0-1.235-7.33,3.66,3.66,0,0,0-4.609-.859,6.458,6.458,0,0,0-2.869,6.5,3.77,3.77,0,0,0,2.093,2.725,2.043,2.043,0,0,0,2.236-.283c.107-.093.108-.161-.009-.229a.714.714,0,0,1-.364-.838.887.887,0,0,1,.708-.651,1.528,1.528,0,0,1,.787-.012.7.7,0,0,1,.569.965,1.561,1.561,0,0,1-.619.876,4.872,4.872,0,0,1-5.832-.027A4.258,4.258,0,0,1,7.474,6.629a6.579,6.579,0,0,1,2.139-4.9A7.4,7.4,0,0,1,17.382.648a4.723,4.723,0,0,1,2.3,2.47,8.758,8.758,0,0,1-.2,7.539,11.365,11.365,0,0,1-8.109,6.524,8.646,8.646,0,0,1-5.176-.337,9.983,9.983,0,0,1-1.345-.767A2.914,2.914,0,0,0,4.327,15.467Z" transform="translate(0 0)" fill="#fff"/>
  </g>
</svg>
