<?xml version="1.0" encoding="utf-8"?>
<!-- Generator: Adobe Illustrator 17.0.0, SVG Export Plug-In . SVG Version: 6.00 Build 0)  -->
<!DOCTYPE svg PUBLIC "-//W3C//DTD SVG 1.1//EN" "http://www.w3.org/Graphics/SVG/1.1/DTD/svg11.dtd">
<svg version="1.1" id="Layer_1" xmlns="http://www.w3.org/2000/svg" xmlns:xlink="http://www.w3.org/1999/xlink" x="0px" y="0px"
	 width="406.672px" height="142.485px" viewBox="0 0 406.672 142.485" enable-background="new 0 0 406.672 142.485"
	 xml:space="preserve">
<g>
	<g>
		<path fill="#B11F24" d="M313.919,95.104c-0.129,0.527-0.219,1.018-0.271,1.469c-1.636,0.322-3.163,0.482-4.58,0.482
			c-1.341,0-2.594-0.186-3.759-0.559c-1.167-0.375-2.169-0.975-3.006-1.807c-0.837-0.83-1.459-1.873-1.866-3.127
			c-0.405-1.258-0.607-2.572-0.607-3.949c0-1.879,0.317-3.668,0.956-5.369c0.639-1.697,1.655-3.041,3.055-4.025
			c1.398-0.984,3.288-1.477,5.673-1.477c1.739,0,3.395,0.236,4.967,0.715c0.012,0.426,0.059,0.875,0.134,1.352
			c-1.339-0.41-2.39-0.678-3.149-0.801c-0.761-0.123-1.456-0.184-2.088-0.184c-1.353,0-2.551,0.26-3.595,0.781
			c-1.044,0.521-1.91,1.258-2.599,2.211c-0.69,0.951-1.179,2.018-1.469,3.195c-0.29,1.178-0.434,2.359-0.434,3.543
			c0,1.273,0.16,2.465,0.482,3.572c0.321,1.105,0.838,2.008,1.547,2.703c0.707,0.695,1.577,1.227,2.608,1.592
			c1.032,0.367,2.114,0.551,3.248,0.551c0.632,0,1.301-0.063,2.01-0.184C311.882,95.669,312.798,95.438,313.919,95.104z"/>
		<path fill="#B11F24" d="M327.526,76.743c1.198,0,2.357,0.166,3.479,0.502c1.12,0.336,2.108,0.906,2.966,1.709
			c0.856,0.807,1.511,1.861,1.961,3.162c0.452,1.301,0.677,2.68,0.677,4.135c0,1.572-0.238,3.08-0.715,4.523
			c-0.477,1.443-1.152,2.65-2.029,3.623c-0.877,0.975-1.903,1.66-3.082,2.059c-1.179,0.4-2.434,0.6-3.761,0.6
			c-0.927,0-1.838-0.107-2.733-0.318c-0.896-0.213-1.734-0.57-2.513-1.072c-0.78-0.504-1.463-1.154-2.049-1.953
			c-0.586-0.797-1.031-1.746-1.334-2.842c-0.304-1.094-0.453-2.234-0.453-3.42c0-2.074,0.387-3.973,1.159-5.693
			c0.773-1.719,1.93-2.984,3.469-3.797C324.107,77.147,325.76,76.743,327.526,76.743z M327.487,77.825
			c-1.533,0-2.957,0.373-4.272,1.119c-1.314,0.748-2.28,1.887-2.899,3.416c-0.618,1.533-0.927,3.213-0.927,5.041
			c0,1.287,0.176,2.496,0.531,3.631c0.354,1.131,0.924,2.088,1.711,2.865c0.785,0.779,1.632,1.32,2.54,1.623
			c0.909,0.301,1.865,0.453,2.871,0.453c1.146,0,2.223-0.186,3.228-0.561c1.004-0.373,1.892-0.998,2.657-1.873
			c0.767-0.875,1.331-1.949,1.691-3.223c0.36-1.275,0.54-2.627,0.54-4.057c0-1.324-0.176-2.568-0.531-3.734
			c-0.354-1.164-0.904-2.098-1.651-2.801c-0.747-0.699-1.599-1.191-2.551-1.475C329.471,77.966,328.493,77.825,327.487,77.825z"/>
		<path fill="#B11F24" d="M354.294,95.104c-0.129,0.527-0.219,1.018-0.271,1.469c-1.636,0.322-3.163,0.482-4.58,0.482
			c-1.341,0-2.594-0.186-3.759-0.559c-1.167-0.375-2.169-0.975-3.006-1.807c-0.837-0.83-1.458-1.873-1.866-3.127
			c-0.405-1.258-0.607-2.572-0.607-3.949c0-1.879,0.318-3.668,0.956-5.369c0.639-1.697,1.655-3.041,3.055-4.025
			c1.398-0.984,3.288-1.477,5.673-1.477c1.739,0,3.395,0.236,4.967,0.715c0.012,0.426,0.059,0.875,0.135,1.352
			c-1.34-0.41-2.391-0.678-3.15-0.801c-0.761-0.123-1.456-0.184-2.088-0.184c-1.353,0-2.551,0.26-3.595,0.781
			c-1.044,0.521-1.91,1.258-2.599,2.211c-0.69,0.951-1.179,2.018-1.469,3.195c-0.29,1.178-0.434,2.359-0.434,3.543
			c0,1.273,0.16,2.465,0.483,3.572c0.32,1.105,0.837,2.008,1.546,2.703c0.708,0.695,1.577,1.227,2.608,1.592
			c1.032,0.367,2.114,0.551,3.248,0.551c0.632,0,1.301-0.063,2.011-0.184C352.257,95.669,353.173,95.438,354.294,95.104z"/>
		<path fill="#B11F24" d="M359.107,96.669l0.578-12.602c0.04-1.223,0.115-4.381,0.232-9.471l0.116-4.31
			c0.297,0.014,0.542,0.021,0.735,0.021c0.219,0,0.469-0.007,0.754-0.021l-0.524,11.289c0.297-0.608,0.552-1.082,0.765-1.432
			c0.212-0.348,0.498-0.705,0.859-1.072c0.36-0.367,0.745-0.684,1.15-0.947c0.406-0.264,0.863-0.494,1.372-0.695
			c0.509-0.199,1.108-0.363,1.799-0.492c0.688-0.129,1.413-0.193,2.174-0.193c1.12,0,2.184,0.119,3.189,0.355
			c1.004,0.24,1.862,0.639,2.571,1.201c0.707,0.559,1.197,1.232,1.469,2.018c0.271,0.787,0.405,1.572,0.405,2.357
			c0,0.26-0.007,0.619-0.018,1.084c-0.028,0.707-0.082,1.67-0.161,2.879l-0.317,7.867c-0.027,0.502-0.054,1.225-0.081,2.164
			c-0.331-0.012-0.585-0.02-0.765-0.02c-0.191,0-0.452,0.008-0.783,0.02c0.153-1.662,0.27-3.338,0.347-5.025l0.27-4.717
			c0.09-1.453,0.135-2.711,0.135-3.768c0-1.225-0.23-2.223-0.687-2.996c-0.457-0.773-1.224-1.355-2.3-1.748
			c-1.076-0.395-2.213-0.59-3.41-0.59c-0.8,0-1.586,0.09-2.359,0.27c-0.722,0.168-1.353,0.394-1.893,0.678
			c-0.452,0.23-0.864,0.52-1.237,0.869c-0.4,0.375-0.761,0.811-1.082,1.314c-0.349,0.58-0.639,1.225-0.869,1.934
			c-0.221,0.656-0.387,1.539-0.504,2.646c-0.088,0.863-0.178,2.551-0.268,5.064l-0.154,6.068c-0.334-0.012-0.586-0.02-0.754-0.02
			C359.694,96.649,359.442,96.657,359.107,96.669z"/>
		<path fill="#B11F24" d="M381.914,96.669c0.145-1.932,0.313-5.301,0.504-10.107c0.192-4.807,0.287-7.945,0.287-9.414
			c0.331,0.014,0.587,0.021,0.765,0.021c0.191,0,0.452-0.008,0.783-0.021c-0.181,2.449-0.357,5.787-0.531,10.014
			c-0.173,4.227-0.261,7.396-0.261,9.508c-0.335-0.012-0.592-0.02-0.773-0.02C382.507,96.649,382.249,96.657,381.914,96.669z
			 M382.627,72.201l0.059-1.914c0.323,0.014,0.651,0.021,0.986,0.021c0.334,0,0.664-0.007,0.984-0.021l-0.057,1.914
			c-0.322-0.026-0.65-0.038-0.985-0.038C383.278,72.163,382.95,72.174,382.627,72.201z"/>
		<path fill="#B11F24" d="M389.026,96.669l0.655-11.809l0.175-5.547c0.026-0.992,0.038-1.713,0.038-2.166
			c0.335,0.014,0.587,0.021,0.754,0.021c0.155,0,0.4-0.008,0.735-0.021l-0.261,4.408c0.285-0.605,0.52-1.066,0.706-1.383
			c0.188-0.316,0.441-0.654,0.765-1.014c0.322-0.361,0.705-0.699,1.15-1.016c0.445-0.316,0.98-0.58,1.605-0.793
			c0.625-0.211,1.267-0.367,1.924-0.463c0.657-0.098,1.309-0.145,1.953-0.145c1.082,0,2.134,0.121,3.153,0.367
			c1.018,0.244,1.862,0.666,2.533,1.264c0.67,0.602,1.131,1.289,1.383,2.07c0.25,0.779,0.376,1.613,0.376,2.502
			c0,0.4-0.019,0.992-0.057,1.779l-0.404,8.793l-0.077,3.15c-0.259-0.012-0.51-0.02-0.756-0.02c-0.245,0-0.49,0.008-0.735,0.02
			c0.128-1.609,0.229-3.15,0.306-4.619l0.267-4.947c0.103-1.83,0.154-3.15,0.154-3.963c0-0.852-0.123-1.609-0.368-2.279
			c-0.245-0.67-0.666-1.229-1.265-1.672c-0.599-0.445-1.31-0.768-2.135-0.967c-0.824-0.201-1.674-0.301-2.551-0.301
			c-1.224,0-2.306,0.168-3.246,0.502c-0.889,0.322-1.667,0.797-2.336,1.422c-0.67,0.625-1.217,1.414-1.643,2.367
			c-0.32,0.697-0.565,1.67-0.733,2.92c-0.153,1.082-0.277,2.85-0.374,5.305c-0.097,2.453-0.144,4.531-0.144,6.232
			c-0.336-0.012-0.594-0.02-0.774-0.02C389.62,96.649,389.361,96.657,389.026,96.669z"/>
	</g>
	<g>
		<path fill="#B11F24" d="M51.51,19.312c-6.929,0.414-12.72-2.689-18.924-4.653c-1.034,5.688-2.481,14.063-4.033,22.749h10.858
			l-0.93,5.066H27.623c-3,16.857-5.896,33.402-5.896,33.402c-1.137,6.826,0.208,7.551,0.208,7.551
			c-5.688,3.93-15.718,3.723-13.753-7.551c0-0.104,2.895-16.441,5.894-33.402H8.595l0.931-5.066h5.481
			c1.654-9.201,3.206-18.096,4.239-24.196C8.182,14.349,6.424,21.483,6.113,23.759c-0.103,1.448,1.758,1.655,2.482,2.791
			c0.311,0.31,0.414,0.725,0.517,1.139c0.621,2.171-0.93,4.653-3.309,5.584c-2.378,0.93-4.446-0.207-5.17-2.274
			C-2.366,23.241,5.08,8.247,27.623,8.247c8.479,0,13.959,1.966,18.821,2.378c6.204,0.725,11.892,0,14.993-2.274
			C61.025,15.486,56.888,19.001,51.51,19.312z"/>
		<path fill="#B11F24" d="M85.421,68.328C80.663,83.634,71.46,85.7,66.393,85.7c-5.688,0-10.237-3.412-10.548-11.27
			c0-1.656,0.104-3.622,0.415-5.689l8.582-48.189c0.311-1.966-0.104-2.689-1.241-2.689c0.104,0.208,0,0.415,0,0.622
			c-0.207,1.034-1.137,1.965-2.275,1.965c-1.034,0-1.862-0.932-1.655-1.965c0.621-3.619,6.308-5.068,10.444-5.068
			c4.24,0,9.307,1.242,7.654,10.342l-8.377,47.36c-0.93,5.377,1.551,6.307,4.136,6.307c3.619,0,7.134-4.445,8.375-9.099H85.421z"/>
		<path fill="#B11F24" d="M119.646,61.295C117.164,74.843,106.616,85.7,95.862,85.7c-10.755,0-17.477-11.065-15.202-24.61
			c2.173-12.307,11.065-22.648,20.786-24.302c1.034-0.208,1.964-0.311,2.998-0.311c2.792,0,5.273,0.723,7.446,1.965
			c5.17,1.034,7.031,7.342,7.755,11.994c0.311,1.554,0.518,3.207,0.518,4.965c0.309,0,0.62,0,0.93,0
			c5.79,0,10.858-3.204,13.133-8.582h2.792C134.846,54.576,127.505,60.676,119.646,61.295z M111.269,61.09
			c0.104-0.414,0.207-0.933,0.311-1.345c-4.963-2.585-7.755-8.17-6.618-14.686c0-0.103,0-0.31,0.103-0.413
			c-1.344,0.207-2.585,0.827-3.826,1.966c-3.103,2.792-5.895,8.273-7.032,14.478c-1.551,9.1,0.93,16.543,5.688,16.543
			C104.547,77.634,109.717,70.19,111.269,61.09z"/>
		<path fill="#B11F24" d="M205.989,45.578c-1.758,8.273-11.996,10.031-16.753,6.309C184.687,66.984,172.691,85.7,160.799,85.7
			c-4.654,0-8.687-2.377-10.031-7.859c-4.86,6.723-10.755,7.859-14.477,7.859c-5.688,0-10.34-3.412-10.547-11.27
			c0-1.656,0.104-3.622,0.414-5.689c0,0,3.93-21.922,4.033-22.439c1.964-11.272,11.995-11.479,16.544-7.548
			c0,0-1.86,0.723-2.997,7.548c-0.104,0.621-4.24,23.784-4.447,24.817c-0.93,5.377,1.448,6.307,4.137,6.307
			c2.689,0,5.273-2.377,6.929-5.48c0.102-1.034,0.309-2.171,0.413-3.205c0,0,3.929-21.922,4.033-22.439
			c1.966-11.272,11.996-11.479,16.443-7.548c0,0-1.862,0.723-2.999,7.548c-0.104,0.621-4.24,23.784-4.447,24.817
			c-0.93,5.377,1.552,6.307,4.137,6.307c5.792,0.104,14.065-16.75,17.373-27.195c-5.17-2.38-6.825-17.063,0.518-16.959
			c4.756,0.104,5.997,5.377,4.86,12.408c2.274,6.517,11.477,5.377,13.444-1.446L205.989,45.578z"/>
		<path fill="#B11F24" d="M238.038,68.328c-3,11.582-16.029,19.544-29.059,17.062c-10.236-1.963-18.302-10.754-14.891-24.196
			c3.414-13.65,13.031-24.716,23.783-24.716c0.104,0,0.312,0,0.415,0c8.065,0,12.925,7.24,10.237,15.098
			c-5.479,15.2-21.818,15.305-21.818,15.305c-1.241,16.855,22.439,15.822,27.816,1.447H238.038z M218.494,43.096
			c-3.516-0.104-10.341,8.065-10.962,19.544c7.343-1.241,12.1-4.86,14.27-10.237C223.664,47.852,221.389,43.303,218.494,43.096z"/>
		<path fill="#B11F24" d="M284.774,49.818c-1.138,3.308-5.894,10.133-13.133,10.651c-13.96,0.826-14.89-9.825-11.272-15.615
			c1.86-2.999-8.065-2.792-9.41,4.24c-1.24,6.825-4.756,26.678-4.756,26.782c-1.139,6.826,0.309,7.551,0.309,7.551
			c-5.79,3.93-15.718,3.723-13.855-7.551c0.104-0.205,5.686-32.262,5.686-32.262c0.414-1.964,0-2.688-1.137-2.688
			c0,0.207,0,0.414,0,0.621c-0.207,1.032-1.24,1.964-2.378,1.964c-1.034,0-1.759-0.932-1.552-1.964
			c0.621-3.621,6.206-5.069,10.341-5.069c3.309,0,7.032,0.723,7.963,5.172c2.688-2.792,7.55-5.172,11.995-5.172
			c11.065,0,11.169,6.515,10.343,8.997c-1.345,3.931-3.93,5.481-3.621,8.273c0.725,5.48,10.135,1.344,12.203-3.93H284.774z"/>
	</g>
	<g>
		<path fill="#DFB824" d="M83.004,125.798c-0.164,0.77-0.289,1.549-0.37,2.34c-1.705,0.492-3.234,0.836-4.589,1.031
			c-1.354,0.193-2.74,0.293-4.155,0.293c-2.464,0-4.646-0.334-6.544-1c-1.898-0.668-3.526-1.773-4.88-3.322
			c-1.355-1.549-2.319-3.287-2.894-5.215c-0.575-1.928-0.863-3.977-0.863-6.152c0-2.85,0.494-5.521,1.479-8.014
			c0.985-2.49,2.605-4.559,4.865-6.197c2.257-1.641,5.06-2.461,8.406-2.461c2.299,0,4.382,0.426,6.251,1.277
			c1.867,0.852,3.32,2.244,4.355,4.172c1.037,1.93,1.555,4.219,1.555,6.867c0,0.492-0.021,0.965-0.06,1.416l-24.386,0.031
			c-0.104,1.332-0.154,2.336-0.154,3.012c0,1.947,0.287,3.832,0.863,5.656c0.575,1.822,1.445,3.35,2.606,4.578
			c1.162,1.23,2.552,2.141,4.178,2.734c1.622,0.596,3.339,0.893,5.147,0.893C76.568,127.737,79.631,127.091,83.004,125.798z
			 M61.449,109.171l21.924,0.031c-0.021-1.418-0.104-2.504-0.247-3.266c-0.143-0.76-0.411-1.539-0.8-2.34
			c-0.392-0.801-0.86-1.492-1.405-2.078c-0.544-0.584-1.182-1.078-1.911-1.477c-0.73-0.4-1.548-0.705-2.452-0.91
			c-0.904-0.205-1.85-0.307-2.835-0.307c-1.091,0-2.159,0.123-3.208,0.369c-1.047,0.246-2.003,0.584-2.867,1.016
			c-0.864,0.43-1.67,0.98-2.421,1.646c-0.751,0.668-1.367,1.391-1.85,2.172c-0.483,0.779-0.853,1.523-1.11,2.232
			C62.01,106.968,61.737,107.938,61.449,109.171z"/>
		<path fill="#DFB824" d="M86.698,128.845l6.206-8.42l6.176-8.547l-8.872-14.131c0.535,0.02,0.979,0.029,1.331,0.029
			c0.392,0,0.844-0.01,1.36-0.029c1.862,3.25,4.421,7.279,7.676,12.086c3.921-5.109,6.856-9.137,8.806-12.086
			c0.535,0.02,0.999,0.029,1.391,0.029c0.411,0,0.875-0.01,1.389-0.029l-10.29,14.129l10.784,16.969
			c-0.539-0.02-1.025-0.029-1.46-0.029c-0.456,0-0.942,0.01-1.458,0.029c-0.733-1.33-1.332-2.379-1.8-3.144
			c-0.773-1.289-1.943-3.156-3.508-5.596c-1.567-2.438-2.92-4.496-4.059-6.17c-3.7,4.779-7.317,9.75-10.852,14.91
			c-0.531-0.02-1-0.029-1.41-0.029C87.678,128.815,87.209,128.825,86.698,128.845z"/>
		<path fill="#DFB824" d="M117.088,142.485l0.362-6.215l0.968-27.877l0.212-9.354c2.669-0.719,5.008-1.221,7.012-1.51
			c2.004-0.287,3.95-0.43,5.841-0.43c2.999,0,5.593,0.508,7.781,1.523c2.189,1.018,3.89,2.756,5.102,5.219
			c1.213,2.463,1.819,5.266,1.819,8.406c0,3.326-0.642,6.373-1.924,9.145c-1.284,2.771-3.02,4.811-5.207,6.113
			c-2.188,1.303-4.626,1.955-7.317,1.955c-1.212,0-2.402-0.135-3.574-0.4c-1.17-0.268-2.243-0.674-3.218-1.217
			c-0.977-0.543-1.807-1.211-2.496-2.002c-0.688-0.789-1.484-2.025-2.387-3.711l-0.478,16.297v1.043
			c0,0.697,0.009,1.703,0.029,3.014c-0.533-0.02-0.954-0.031-1.263-0.031C118.044,142.454,117.623,142.466,117.088,142.485z
			 M121.03,100.948c-0.167,1.746-0.319,4.24-0.456,7.484c-0.137,3.242-0.204,5.387-0.204,6.434c0,1.785,0.184,3.443,0.556,4.973
			c0.369,1.529,1.109,2.926,2.221,4.188c1.11,1.262,2.421,2.213,3.933,2.848c1.512,0.637,3.079,0.955,4.704,0.955
			c2.325,0,4.411-0.625,6.261-1.877c1.851-1.254,3.286-3.105,4.304-5.559s1.527-5.127,1.527-8.021c0-2.895-0.524-5.398-1.572-7.512
			c-1.049-2.115-2.473-3.648-4.271-4.605c-1.798-0.953-3.838-1.43-6.12-1.43C128.482,98.825,124.852,99.532,121.03,100.948z"/>
		<path fill="#DFB824" d="M152.775,128.845c0.247-4.33,0.481-9.422,0.707-15.271c0.226-5.852,0.338-10.201,0.338-13.055
			l-0.031-2.771c0.411,0.02,0.791,0.029,1.141,0.029c0.37,0,0.749-0.01,1.139-0.029l-0.276,5.818c0.697-1.395,1.345-2.453,1.94-3.17
			c0.595-0.719,1.289-1.318,2.078-1.803c0.791-0.48,1.714-0.85,2.771-1.107c1.058-0.258,2.161-0.385,3.31-0.385
			c0.84,0,1.693,0.102,2.556,0.307c0,0.699,0.04,1.396,0.123,2.094c-1.376-0.348-2.568-0.523-3.574-0.523
			c-0.985,0-1.875,0.133-2.665,0.4c-0.792,0.268-1.531,0.658-2.219,1.17c-0.688,0.514-1.362,1.217-2.018,2.109
			c-0.657,0.894-1.151,1.844-1.479,2.85c-0.411,1.17-0.688,2.596-0.832,4.279c-0.218,2.627-0.355,5.625-0.414,8.992
			c-0.079,4.537-0.119,7.891-0.119,10.066c-0.537-0.02-0.949-0.029-1.237-0.029C153.724,128.815,153.311,128.825,152.775,128.845z"
			/>
		<path fill="#DFB824" d="M196.066,125.798c-0.164,0.77-0.288,1.549-0.369,2.34c-1.705,0.492-3.233,0.836-4.589,1.031
			c-1.354,0.193-2.74,0.293-4.155,0.293c-2.464,0-4.646-0.334-6.544-1c-1.898-0.668-3.525-1.773-4.88-3.322
			c-1.355-1.549-2.32-3.287-2.894-5.215c-0.575-1.928-0.863-3.977-0.863-6.152c0-2.85,0.494-5.521,1.479-8.014
			c0.985-2.49,2.606-4.559,4.865-6.197c2.257-1.641,5.06-2.461,8.406-2.461c2.299,0,4.382,0.426,6.251,1.277
			c1.867,0.852,3.32,2.244,4.356,4.172c1.037,1.93,1.555,4.219,1.555,6.867c0,0.492-0.021,0.965-0.061,1.416l-24.386,0.031
			c-0.104,1.332-0.153,2.336-0.153,3.012c0,1.947,0.286,3.832,0.863,5.656c0.575,1.822,1.444,3.35,2.606,4.578
			c1.161,1.23,2.552,2.141,4.178,2.734c1.622,0.596,3.339,0.893,5.148,0.893C189.631,127.737,192.694,127.091,196.066,125.798z
			 M174.512,109.171l21.923,0.031c-0.021-1.418-0.104-2.504-0.247-3.266c-0.143-0.76-0.41-1.539-0.801-2.34
			c-0.391-0.801-0.859-1.492-1.404-2.078c-0.543-0.584-1.182-1.078-1.91-1.477c-0.73-0.4-1.548-0.705-2.452-0.91
			c-0.904-0.205-1.85-0.307-2.835-0.307c-1.091,0-2.159,0.123-3.208,0.369c-1.047,0.246-2.003,0.584-2.866,1.016
			c-0.865,0.43-1.67,0.98-2.421,1.646c-0.75,0.668-1.367,1.391-1.85,2.172c-0.483,0.779-0.853,1.523-1.11,2.232
			C175.072,106.968,174.8,107.938,174.512,109.171z"/>
		<path fill="#DFB824" d="M202.532,128.23c-0.041-0.986-0.123-1.858-0.246-2.617c1.62,0.719,3.15,1.221,4.587,1.51
			c1.438,0.287,2.751,0.432,3.941,0.432c1.581,0,2.931-0.227,4.049-0.678c1.12-0.451,1.966-1.117,2.54-2
			c0.574-0.881,0.863-1.805,0.863-2.768c0-0.432-0.047-0.846-0.139-1.246c-0.093-0.4-0.241-0.801-0.447-1.199
			c-0.205-0.4-0.436-0.77-0.693-1.107c-0.256-0.34-0.614-0.725-1.076-1.154c-0.463-0.43-1.002-0.912-1.617-1.445
			c-0.616-0.533-1.581-1.344-2.895-2.43c-1.312-1.088-2.396-2.025-3.248-2.814c-0.852-0.791-1.559-1.59-2.124-2.4
			c-0.565-0.811-0.966-1.553-1.201-2.23c-0.236-0.676-0.354-1.363-0.354-2.061c0-1.189,0.372-2.342,1.123-3.459
			c0.749-1.119,1.826-1.975,3.232-2.57c1.407-0.594,3.188-0.891,5.343-0.891c1.805,0,3.838,0.234,6.098,0.707
			c0.019,0.904,0.08,1.777,0.184,2.619c-1.314-0.557-2.49-0.93-3.525-1.125c-1.037-0.195-2.09-0.293-3.156-0.293
			c-1.334,0-2.566,0.201-3.695,0.6c-1.128,0.4-1.975,0.984-2.539,1.756c-0.564,0.768-0.848,1.602-0.848,2.504
			c0,0.492,0.063,0.955,0.185,1.385c0.124,0.432,0.319,0.869,0.585,1.309c0.268,0.439,0.611,0.893,1.031,1.354
			c0.422,0.461,0.965,0.994,1.633,1.6c0.666,0.605,1.631,1.436,2.895,2.492c1.262,1.055,2.202,1.854,2.816,2.398
			c0.616,0.543,1.145,1.039,1.586,1.49c0.441,0.453,0.863,0.949,1.264,1.492c0.4,0.545,0.723,1.072,0.969,1.586
			c0.248,0.512,0.432,1.029,0.555,1.553c0.123,0.521,0.185,1.051,0.185,1.584c0,1.293-0.38,2.512-1.14,3.66
			c-0.759,1.146-1.863,2.051-3.309,2.705c-1.449,0.658-3.187,0.986-5.219,0.986c-0.762,0-1.711-0.063-2.85-0.186
			c-1.139-0.123-2.053-0.252-2.74-0.385S203.579,128.538,202.532,128.23z"/>
		<path fill="#DFB824" d="M225.194,128.23c-0.041-0.986-0.123-1.858-0.246-2.617c1.621,0.719,3.151,1.221,4.587,1.51
			c1.438,0.287,2.751,0.432,3.941,0.432c1.581,0,2.931-0.227,4.049-0.678c1.12-0.451,1.966-1.117,2.54-2
			c0.575-0.881,0.863-1.805,0.863-2.768c0-0.432-0.047-0.846-0.139-1.246c-0.093-0.4-0.241-0.801-0.446-1.199
			c-0.206-0.4-0.436-0.77-0.694-1.107c-0.255-0.34-0.614-0.725-1.076-1.154c-0.463-0.43-1.002-0.912-1.617-1.445
			c-0.616-0.533-1.581-1.344-2.895-2.43c-1.313-1.088-2.396-2.025-3.248-2.814c-0.852-0.791-1.56-1.59-2.124-2.4
			c-0.565-0.811-0.966-1.553-1.201-2.23c-0.236-0.676-0.354-1.363-0.354-2.061c0-1.189,0.372-2.342,1.124-3.459
			c0.748-1.119,1.825-1.975,3.231-2.57c1.407-0.594,3.188-0.891,5.343-0.891c1.806,0,3.838,0.234,6.098,0.707
			c0.019,0.904,0.081,1.777,0.185,2.619c-1.315-0.557-2.49-0.93-3.526-1.125c-1.037-0.195-2.09-0.293-3.156-0.293
			c-1.334,0-2.566,0.201-3.694,0.6c-1.129,0.4-1.976,0.984-2.54,1.756c-0.564,0.768-0.848,1.602-0.848,2.504
			c0,0.492,0.063,0.955,0.184,1.385c0.124,0.432,0.319,0.869,0.585,1.309c0.268,0.439,0.611,0.893,1.032,1.354
			s0.964,0.994,1.632,1.6c0.666,0.605,1.631,1.436,2.895,2.492c1.262,1.055,2.202,1.854,2.816,2.398
			c0.616,0.543,1.145,1.039,1.586,1.49c0.441,0.453,0.863,0.949,1.264,1.492c0.4,0.545,0.723,1.072,0.97,1.586
			c0.246,0.512,0.432,1.029,0.554,1.553c0.123,0.521,0.185,1.051,0.185,1.584c0,1.293-0.38,2.512-1.139,3.66
			c-0.76,1.146-1.864,2.051-3.31,2.705c-1.448,0.658-3.188,0.986-5.219,0.986c-0.762,0-1.711-0.063-2.85-0.186
			c-1.139-0.123-2.052-0.252-2.74-0.385C227.108,128.759,226.241,128.538,225.194,128.23z"/>
	</g>
	<g>
		<g>
			<path fill="#B11F24" d="M313.773,7.103l-0.184,0.238c-0.061,0.024-2.378,3.468-1.532,5.598c0.778,2.098,3.695,3.717,3.705,3.748
				l0.247,0.117l-0.276,0.052c-3.748,0.874-6.616,1.605-10.354,5.768c-1.485,1.66-2.367,3.931-2.906,6.357
				c-0.659,2.889-0.788,5.875-1.22,8.988c-0.302,2.23-1.314,4.048-3.267,5.04c-2.265,1.204-6.233-0.104-8.373-3.048
				c-1.809-2.872-3.659-4.553-2.229-14.762c1.744-10.796,3.805-22.805,3.898-23.091l0.253-0.157
				c-0.023,0.088,1.577,3.995,4.312,3.581c2.64-0.485,8.407-5.426,8.583-5.332L304.678,0l-0.065,0.25
				c-0.107,0.036-0.974,4.958,1.314,6.765c2.292,1.795,7.513,0.129,7.564,0.183L313.773,7.103z"/>
		</g>
		<linearGradient id="SVGID_1_" gradientUnits="userSpaceOnUse" x1="291.6527" y1="21.7964" x2="312.8512" y2="21.7964">
			<stop  offset="0" style="stop-color:#FFFFFF"/>
			<stop  offset="1" style="stop-color:#FFF100"/>
		</linearGradient>
		<path fill="url(#SVGID_1_)" d="M304.262,0.709c-0.351,1.325-0.72,5.326,1.258,6.868c1.962,1.539,5.752,0.382,7.331,0.019
			c-2.191,1.155-9.248,6.443-11.959,12.297c-1.41,2.761-1.784,4.836-2.13,6.606c-0.331,2.644-0.625,4.656-0.808,8.549
			c-0.164,4.107-0.322,7.276-0.418,7.834c-0.241-0.034-1.415-0.12-3.13-1.829c-2.147-1.915-4.211-9.315-1.602-16.995
			C294.173,16.822,301.739,2.894,304.262,0.709z"/>
		<linearGradient id="SVGID_2_" gradientUnits="userSpaceOnUse" x1="287.3534" y1="21.9321" x2="303.9499" y2="21.9321">
			<stop  offset="0" style="stop-color:#FFFFFF"/>
			<stop  offset="1" style="stop-color:#FFF100"/>
		</linearGradient>
		<path fill="url(#SVGID_2_)" d="M297.206,43.067c-2.685-0.563-5.396-0.874-7.424-3.435c-1.311-2.067-3.439-4.774-1.88-14.803
			c1.165-5.723,1.572-11.162,2.276-15.263c0.589-3.213,1.046-5.813,1.257-6.938c0.398,1.234,1.85,4.066,4.183,3.714
			c2.252-0.47,6.658-4.282,8.332-5.545c-2.702,2.563-10.216,15.786-11.682,22.976c-2.714,7.894-0.164,15.549,2.037,17.475
			C295.649,42.597,296.707,42.939,297.206,43.067z"/>
		<linearGradient id="SVGID_3_" gradientUnits="userSpaceOnUse" x1="297.7409" y1="25.2411" x2="315.4401" y2="25.2411">
			<stop  offset="0" style="stop-color:#FFFFFF"/>
			<stop  offset="1" style="stop-color:#FFF100"/>
		</linearGradient>
		<path fill="url(#SVGID_3_)" d="M313.155,7.622c-0.756,0.972-2.36,3.832-1.645,5.627c0.752,1.867,3.191,3.082,3.93,3.482
			c-3.648,0.873-6.305,1.332-10.102,5.408c-1.57,1.667-2.729,4.132-3.322,6.62c-0.689,2.923-0.851,5.985-1.289,9.119
			c-0.281,2.188-0.963,3.973-2.837,4.915l-0.148,0.066c0.107-0.784,0.518-3.466,0.601-7.376c0.114-3.869,0.252-6.427,0.607-8.964
			c0.285-1.777,1.28-4.262,2.656-6.972C304.533,13.667,311.305,8.575,313.155,7.622z"/>
		<g>
			<path fill="#B11F24" d="M293.665,46.039c-1.149-1.509-2.492-4.498,0.518-4.639c2.936-0.193,3.51-0.636,4.394-1.001
				c0.854-0.335,2.816,0.41,2.906,2.785c0.266,2.202-1.401,3.692-3.196,4.47C296.744,48.337,294.893,47.54,293.665,46.039z"/>
		</g>
		<g>
			<g>
				<path fill="#B11F24" d="M297.01,44.123c-0.262-0.625,5.504,25.116-11.491,50.83c-16.512,25.496-41.027,35.164-40.461,35.281
					c-0.485-0.145,23.071-11.008,39.201-36.02C300.944,69.115,296.771,43.643,297.01,44.123z"/>
			</g>
		</g>
	</g>
</g>
</svg>
