<svg xmlns="http://www.w3.org/2000/svg" width="278.726" height="145.188" viewBox="0 0 278.726 145.188">
  <g id="leaf" transform="translate(-116.318 -215.573)" opacity="0.2">
    <path id="Path_2327" data-name="Path 2327" d="M301.778,290.435c.4.334.805.669,1.211,1,2.276,1.865,4.934,3.422,6.742,5.664,3,3.717,7.037,5.415,11.221,6.958a29.669,29.669,0,0,1,17.165,15.556,38.467,38.467,0,0,1,2.275,5.889c1.982,6.881,3.966,13.766,5.7,20.712a78.755,78.755,0,0,1,1.338,9.365,6.627,6.627,0,0,1-.137,2.074c-.538,2.7-2.136,3.715-4.753,2.75a18.174,18.174,0,0,1-5.2-2.687c-3.86-3.141-7.643-6.4-11.219-9.859a35,35,0,0,1-10.292-18.4c-.911-4.465-1.632-8.976-2.217-13.495a75.3,75.3,0,0,0-2.457-12.59,17.738,17.738,0,0,0-6.195-8.754c-2.632-2.088-5.568-3.794-8.192-5.892-5.073-4.056-10.782-7.05-16.427-10.158a58.565,58.565,0,0,0-12.8-4.718c-4.319-1.2-8.647-2.358-12.977-3.514-.849-.227-1.725-.357-2.588-.532-.069.154-.139.308-.207.461a14.808,14.808,0,0,0,1.852,1.057c4.182,1.664,7.507,4.544,10.918,7.369,2.846,2.358,5.986,4.362,9.012,6.5,3.829,2.705,7.8,5.228,11.479,8.121,5,3.929,8.507,9.124,11.2,14.821a74.186,74.186,0,0,1,6.971,26.53,18.794,18.794,0,0,1-1.583,9.848c-1.749,3.563-5.276,4.371-8.316,1.813a16.161,16.161,0,0,1-2.525-2.788,26.375,26.375,0,0,1-2.08-3.414,108.111,108.111,0,0,0-8.749-13.629c-3.091-4.218-6.247-8.4-9.126-12.76a50.954,50.954,0,0,1-8.751-26.248,36.019,36.019,0,0,0-.489-5.235,20.215,20.215,0,0,0-1.569-5.165,6.59,6.59,0,0,0-2.673-2.533c-3.56-1.971-7.156-3.9-10.857-5.581a43.217,43.217,0,0,0-6.052-1.715c-5.449-1.557-10.891-3.135-16.68-4.8,2.318,1.845,4.418,3.52,6.519,5.191,1.591,1.265,3.2,2.513,4.773,3.8a16.57,16.57,0,0,1,1.677,1.593c5.215,5.624,4.7,10.79.213,17.081-1.751,2.453-5.72,3.237-8.447,2.067-.345-.148-.6-.515-1.129-.994.685-.5,1.226-.876,1.755-1.272,1.289-.965,2.614-1.89,3.849-2.92a6.093,6.093,0,0,0,2.083-4.868,15.266,15.266,0,0,0-2.646-8.524,36.943,36.943,0,0,0-9.844-10.267,47.659,47.659,0,0,0-10.489-5.284c-4.3-1.71-8.589-3.489-12.739-5.532a118.581,118.581,0,0,0-18.867-7.062,110.194,110.194,0,0,0-18.922-3.765,4.808,4.808,0,0,0-2.047.125,7.314,7.314,0,0,0,1.113.526,26.117,26.117,0,0,1,11.011,6.722,10.2,10.2,0,0,0,4.143,2.372c5.593,1.806,11.241,3.481,16.712,5.609a30.259,30.259,0,0,1,12.6,9.225c3.79,4.682,7.426,9.509,10.833,14.475a86.618,86.618,0,0,1,5.507,9.922,12.012,12.012,0,0,1,1.092,4.035,3.908,3.908,0,0,1-4.054,4.538,17.223,17.223,0,0,1-7.087-1.744q-5.915-2.492-11.789-5.074c-6.929-3.056-12.922-7.3-17.148-13.735a57.683,57.683,0,0,1-5.086-10.53,68.126,68.126,0,0,1-4.286-14.3,6.585,6.585,0,0,0-2.005-3.6A30.672,30.672,0,0,0,158.3,242.81c-1.527-.506-3.01-1.147-4.545-1.625-6.919-2.152-14.145-2.741-21.211-4.14-4.185-.829-8.344-1.8-12.493-2.8a5.406,5.406,0,0,1-3.737-2.691c.532-1.821,1.923-1.937,3.251-1.753,2.634.362,5.258.833,7.856,1.394,3.7.8,7.419,1.54,11.033,2.627,4.789,1.438,9.352-.785,11.787-5.027a49.642,49.642,0,0,0,3.181-7.085,16.111,16.111,0,0,1,4.58-6.139,8.423,8.423,0,0,1,.4,1.507c.053,2.1.014,4.205.1,6.305.154,3.618-1.084,6.474-4.4,8.175-1.43.733-2.945,1.3-4.423,1.942-1.2.52-2.412,1.032-3.766,1.611.372.3.509.5.687.549a41.006,41.006,0,0,0,20.594.2,11.3,11.3,0,0,0,5.572-3.61,26.615,26.615,0,0,1,9.12-6.534,65.735,65.735,0,0,1,22.384-5.468c5.457-.342,10.925-.83,16.382-.035a24.24,24.24,0,0,1,3.844,1,3.45,3.45,0,0,1,2.581,2.634c.674-.157,1.272-.274,1.857-.435a68.753,68.753,0,0,1,26.893-2.107,24.86,24.86,0,0,1,4.489,1.052c2.784.893,3.412,3.11,1.271,5.058a33.908,33.908,0,0,1-5.8,4.136c-6.128,3.558-12.332,6.986-18.51,10.456-.918.516-1.882.951-2.787,1.487-5.831,3.449-12.254,4.708-18.9,5.06a72.625,72.625,0,0,1-8.761.094,31.992,31.992,0,0,1-5.707-1.344c-3.112-.809-6.2-1.725-9.333-2.438a8.625,8.625,0,0,0-3.9.171c3.173,1.431,6.342,2.87,9.518,4.292,3.139,1.4,6.271,2.829,9.434,4.18,4.643,1.983,9.238,4.116,13.994,5.786a16.6,16.6,0,0,0,9.713.177c1.283-.332,2.657-.31,3.944-.633a7.969,7.969,0,0,0,2.843-1.228,32.271,32.271,0,0,0,4.409-3.88c9.008-9.865,20.281-15.571,33.242-18.12,8.641-1.7,17.347-2.412,26.116-.931a24.028,24.028,0,0,1,7.953,2.582,9.98,9.98,0,0,1,1.275.734c2.559,2,2.752,4.917.469,7.284a18.232,18.232,0,0,1-6.388,3.985c-2.726,1.123-5.529,2.056-8.271,3.138-3.525,1.391-7.022,2.851-10.534,4.276-3.186,1.294-6.338,2.683-9.57,3.852a43.37,43.37,0,0,1-17.394,2.428c-5.778-.346-11.522-1.4-17.255-2.311-3.21-.508-6.308-.9-9.5.263-1.455.531-3.16.375-4.807.867,2.7.844,5.378,1.738,8.093,2.517a58.241,58.241,0,0,0,7.33,1.849,156.168,156.168,0,0,1,20.54,4.953,50.027,50.027,0,0,0,15.759,1.869,10.8,10.8,0,0,0,6.594-2.477,25.69,25.69,0,0,0,6.732-7.993c.609-1.167,1.15-2.371,1.77-3.659a2.115,2.115,0,0,1,1.054,2.361,49.2,49.2,0,0,1-.57,6.491,7.739,7.739,0,0,1-5.071,6.235,13.368,13.368,0,0,1-7.189.925,19.976,19.976,0,0,0-6.265.117,30.474,30.474,0,0,1,2.879,1.132c1.938.984,3.847,2.027,5.735,3.1a11.052,11.052,0,0,0,4.983,1.5c1.952.1,3.9.347,5.855.378a4.935,4.935,0,0,0,2.191-.645c3.75-1.913,7.452-3.919,11.209-5.819,3.251-1.645,6.47-3.4,9.846-4.745,10.1-4.029,20.558-3.893,31.09-2.294a11.559,11.559,0,0,1,3.348,1.167,4.034,4.034,0,0,1,1.35,6.515,13.245,13.245,0,0,1-3.5,2.951,79.751,79.751,0,0,1-7.214,3.444c-2.509,1.093-5.1,2-7.611,3.093a48.455,48.455,0,0,1-18.7,3.61,29.174,29.174,0,0,1-12.438-2.623c-4.226-1.86-8.583-3.444-13.3-3.593-.337-.01-.676.043-1.536.1A29.544,29.544,0,0,0,292.524,284a102.547,102.547,0,0,0,17.128,7.516c3.057,1.011,6.051,2.215,9.09,3.286a29.988,29.988,0,0,0,3.627,1.043,47.5,47.5,0,0,0,5.561.977,11.534,11.534,0,0,0,3.321-.406c2.68-.56,5.357-1.143,8.015-1.8a40.032,40.032,0,0,1,21.588.893,142.592,142.592,0,0,1,25.658,10.508,22.655,22.655,0,0,1,5.385,3.948c2.792,2.811,1.911,6.071-1.8,7.383a12.262,12.262,0,0,1-2.661.608,21.11,21.11,0,0,1-4.194.246c-4.464-.393-8.954-.708-13.361-1.469-4.468-.771-8.864-1.979-13.265-3.1a31.115,31.115,0,0,1-14.052-7.669,35.632,35.632,0,0,0-10.336-7.1,15.664,15.664,0,0,0-7.241-1.284c2.161,1.4,4.348,2.6,6.289,4.118,5.345,4.177,10.663,8.394,15.842,12.774a22.248,22.248,0,0,0,11.391,5.421,49.906,49.906,0,0,1,12.507,3.52,54.78,54.78,0,0,1,11.825,7.191c1.275.982,2.48,2.067,3.816,2.954,2.781,1.845,4.711,4.514,6.883,6.943a4.83,4.83,0,0,1,1.385,4.452,3.684,3.684,0,0,1-3.188,2.98,20.22,20.22,0,0,1-5.01.093,50.843,50.843,0,0,1-16.106-5.234A36.537,36.537,0,0,1,354.166,326.5c-.825-1.548-1.729-3.055-2.548-4.607a23.146,23.146,0,0,0-4.074-5.3A123.079,123.079,0,0,0,332.483,304a58.856,58.856,0,0,0-16.238-8.7c-4.507-1.535-8.944-3.276-13.414-4.919a8.818,8.818,0,0,0-.9-.23C301.881,290.243,301.83,290.339,301.778,290.435Zm-2.264-46.59c-1.18.114-2.361.22-3.539.343-9.98,1.041-19.949,2.24-29.505,5.461-6.113,2.06-12.1,4.507-18.147,6.756-.91.338-1.873.53-2.8.822-1.755.551-3.5,1.126-5.253,1.69l.063.44c5.223.8,10.423,2,15.676,2.314a54.182,54.182,0,0,0,23.7-3.742c7.742-3.124,15.528-6.14,23.251-9.307a30.493,30.493,0,0,0,5.916-3.165c3.553-2.491,3.274-5.529-.537-7.643a5.607,5.607,0,0,0-1.344-.6c-2.24-.545-4.469-1.194-6.742-1.536-8.57-1.286-17.06-.356-25.475,1.312a56.812,56.812,0,0,0-23.955,10.358c-3.927,3.014-7.432,6.58-11.117,9.908-.048.044.024.221.04.334a61.351,61.351,0,0,0,13.033-3.856c8.778-3.56,17.62-6.876,27.055-8.392A90.333,90.333,0,0,1,299.514,243.845Zm-4.555,92.771-.431.162c-.273-.849-.558-1.694-.816-2.548-1.62-5.361-3.033-10.795-4.9-16.069a58.028,58.028,0,0,0-11.924-20.173,139.45,139.45,0,0,1-12.462-15.869c-.458-.672-.985-1.3-1.742-2.284.287,3.289.59,6.118.77,8.954a46.2,46.2,0,0,0,3.3,13.879,16.783,16.783,0,0,0,5.12,7.078q3.26,2.643,6.458,5.364c5.082,4.349,8.754,9.534,10.093,16.265a42.212,42.212,0,0,0,4.095,12.135c1.058,1.938,2.56,3.179,4.855,3.058,1.789-.094,3.032-1.562,3.716-4.059a23.623,23.623,0,0,0,.66-8.75,80.044,80.044,0,0,0-5.5-22c-3.615-8.858-9.2-16.166-17.378-21.35-3.489-2.211-6.912-4.527-10.347-6.823-1.116-.747-2.173-1.582-3.257-2.377a5.308,5.308,0,0,0,1.047,2.368c2.206,2.809,4.367,5.662,6.709,8.354,3.725,4.282,7.807,8.26,10.792,13.151C289.76,314.818,292.919,325.519,294.959,336.615Zm-120.59-82.877a3.571,3.571,0,0,0-.06.788c.162.826.31,1.659.543,2.466,2.18,7.541,4.719,14.943,9.076,21.559a22.794,22.794,0,0,0,5.325,5.892,23.12,23.12,0,0,0,10.052,3.985,19.607,19.607,0,0,1,7.51,2.52c1.634,1.069,3.141,2.33,4.729,3.468,1.985,1.423,3.912,2.885,6.408,3.457a2.668,2.668,0,0,0,3.373-3.228,16.933,16.933,0,0,0-1.34-4.182,78.422,78.422,0,0,0-5.008-8.754c-3.4-4.885-6.958-9.674-10.676-14.321a28.812,28.812,0,0,0-8.851-7.319,46.87,46.87,0,0,0-10.314-4.123c-3.154-.841-6.2-2.087-9.518-3.231a27.743,27.743,0,0,0,7.688,5.3,34.733,34.733,0,0,1,11.372,9.138,80.574,80.574,0,0,1,6.827,9.813c2.424,4.087,5.378,7.861,8.1,11.772.274.394.525.8.788,1.206a3.28,3.28,0,0,1-1.875-1.052,130.123,130.123,0,0,1-7.873-10.887,67.422,67.422,0,0,0-9.348-12.621,31.937,31.937,0,0,0-5.2-4.2c-2.5-1.669-5.171-3.074-7.727-4.658C177.014,255.691,175.755,254.714,174.369,253.738Zm138.972,49.876-.521.308c.05.337.093.675.152,1.011.68,3.938,1.383,7.871,2.039,11.813.575,3.461,1.01,6.947,1.664,10.392a41.589,41.589,0,0,0,4.173,11.88,38.531,38.531,0,0,0,7.621,9.375c3.025,2.922,6.236,5.655,9.445,8.376a11.842,11.842,0,0,0,5.364,2.8c1.707.333,2.488-.183,2.872-1.886a7.293,7.293,0,0,0-.6-4.922,69.156,69.156,0,0,0-4.531-8.535,41.815,41.815,0,0,1-7.056-21.109,43.22,43.22,0,0,0-1.183-7.04c-.821-3.369-3.019-5.733-5.859-7.671-3.59-2.452-7.789-3.5-11.631-5.354-.049-.024-.188.141-.407.315.453.678.911,1.371,1.378,2.06a75.436,75.436,0,0,1,7.51,13.864c3.4,8.346,6.143,16.989,11.231,24.572a30.23,30.23,0,0,1-5.76-8.94c-2.1-4.751-3.885-9.644-6.077-14.349-2.04-4.381-4.368-8.632-6.712-12.863A34,34,0,0,0,313.341,303.614ZM195.075,244.3c.347.308.437.459.553.482,4.291.851,8.57,1.775,12.883,2.5a17.02,17.02,0,0,0,7.452-.535A31.781,31.781,0,0,0,227.6,241.1a43.947,43.947,0,0,1,16.433-8.228c1.9-.5,3.79-1.055,5.638-1.716,2.97-1.062,5.925-2.174,8.836-3.386a25.554,25.554,0,0,0,3.26-1.924c-.538-1.94-.846-2.211-2.6-2.683-5.233-1.406-10.562-1.177-15.877-.844a64.659,64.659,0,0,0-22.3,5.6c-5.022,2.224-9.971,4.5-14.357,7.85-.775.592-1.661,1.037-2.461,1.6-2.2,1.545-4.388,3.115-6.58,4.675a2.831,2.831,0,0,0,1.542.158,33.851,33.851,0,0,0,11.649-4.054,67.615,67.615,0,0,1,18.146-7.078c3.551-.831,7.121-1.589,10.684-2.367.484-.106.985-.132,1.478-.2q.037.228.073.457c-2.826.788-5.624,1.708-8.486,2.338a82.64,82.64,0,0,0-21.633,7.922c-3.22,1.736-6.911,2.625-10.429,3.776C198.912,243.549,197.116,243.828,195.075,244.3Zm140.373,54.659c-.074.149-.147.3-.22.446.86.591,1.728,1.17,2.579,1.774,2.275,1.612,4.519,3.268,6.82,4.841,2.247,1.536,4.381,3.42,6.862,4.389a83.66,83.66,0,0,0,13.807,4.245,154.864,154.864,0,0,0,17.067,2.175,22.371,22.371,0,0,0,7.07-.685c3.158-.765,3.7-3.089,1.525-5.5a8.206,8.206,0,0,0-1.544-1.415,50.4,50.4,0,0,0-4.492-2.711,171.172,171.172,0,0,0-22.771-9.213c-9.265-3.154-18.441-2.9-27.682-.143-.072.022-.1.192-.124.241,2.507.669,5.069,1.136,7.465,2.04,4.587,1.731,9.04,3.814,13.623,5.557,3.915,1.489,7.886,2.878,11.918,4,4.549,1.265,9.194,2.182,13.507,3.182.183-.057.005.049-.169.044-.838-.024-1.678-.047-2.513-.128-9.356-.9-18.176-3.8-26.824-7.3-3.12-1.261-6.156-2.73-9.3-3.92C339.913,300.077,337.653,299.59,335.448,298.959Zm-36.9-16.717c-.018.117-.038.235-.056.353.849.288,1.69.6,2.548.861,2.943.9,5.849,1.976,8.846,2.632,8.176,1.788,16.191.788,23.99-2,4.027-1.442,7.974-3.119,11.915-4.789a43.145,43.145,0,0,0,5.228-2.7,8.976,8.976,0,0,0,2.321-2.088,2.944,2.944,0,0,0-.983-4.749,9.756,9.756,0,0,0-2.362-.83c-4.482-1.017-9.043-.863-13.6-.908-9.777-.1-18.62,2.894-26.949,7.786-2.537,1.491-5.191,2.781-7.783,4.179a9.4,9.4,0,0,0-1.018.735,6.941,6.941,0,0,0,2.627.121,58.474,58.474,0,0,0,15.321-3.623,58.618,58.618,0,0,1,23.271-4.005c.842.024,1.686.006,2.528.008q.006.214.012.428c-1.587.16-3.171.4-4.764.47a66.658,66.658,0,0,0-20.534,4.186,64.515,64.515,0,0,1-18.3,3.7C300.056,282.062,299.3,282.164,298.55,282.242Zm80.887,57.583a96.051,96.051,0,0,1-13.665-8.514c-4.315-3.166-8.511-6.5-12.758-9.754a28.18,28.18,0,0,0,2.494,5.092,38.763,38.763,0,0,0,8.737,10.69,41.023,41.023,0,0,0,13.8,7.416,75.26,75.26,0,0,0,10.231,2.216,8.615,8.615,0,0,0,3.719-.364,2.468,2.468,0,0,0,1.7-3.64,8.648,8.648,0,0,0-1.855-2.765c-2.382-2.329-4.841-4.585-7.345-6.786a50.357,50.357,0,0,0-4.174-3.178,46.992,46.992,0,0,0-16.784-7.96c-2.56-.579-5.185-.869-7.783-1.276a12.847,12.847,0,0,0-1.319-.074l-.171.382c4.052,3.2,8.022,6.509,12.178,9.567S374.956,336.757,379.437,339.826Zm-206.8-104.264c.687,0,1.374.029,2.06.01,2.225-.058,4.463-.321,6.672-.163a70.737,70.737,0,0,0,17.182-.481A41.626,41.626,0,0,0,210,231.582a138.217,138.217,0,0,1,14.61-6.482c.75-.268,1.465-.552,1.383-1.877a8.109,8.109,0,0,0-2.175-1.116,41.685,41.685,0,0,0-7.05-.972c-11.5-.169-22.843.613-33.623,5.292a30.426,30.426,0,0,0-8.424,5.39,9.506,9.506,0,0,0-1.029,1.334c1.95-.626,3.648-1.254,5.391-1.705,1.284-.334,2.633-.4,3.942-.652,3.152-.6,6.431-.608,9.441-1.86,6.627-2.756,13.589-3.276,20.645-3.228a8.369,8.369,0,0,1,1.241.191,19.859,19.859,0,0,1-5,.829,68.618,68.618,0,0,0-17.125,3.172,53.466,53.466,0,0,1-9.227,1.89A22.161,22.161,0,0,0,172.641,235.561Zm-9.728,2.684c.328.068.652.16.982.2a62.483,62.483,0,0,1,15.884,3.826,19.176,19.176,0,0,0,9.074,1.093c1.116-.105,2.258-.016,3.354-.21a6.911,6.911,0,0,0,2.477-.948c3-1.929,5.959-3.934,8.916-5.936a11.833,11.833,0,0,0,1.285-1.258c-2.065.352-3.672.5-5.209.91-6.33,1.692-12.779,1.235-19.184.98C174.6,236.668,168.745,236.417,162.913,238.245ZM344.834,348.059l.315-.1a14.319,14.319,0,0,0-.251-1.423c-2-7.218-3.909-14.465-6.084-21.632a59.056,59.056,0,0,0-3.412-7.649,8.95,8.95,0,0,0-1.15-1.444c.528,4.131.922,7.937,1.523,11.709a34.11,34.11,0,0,0,3.676,11.556C341.165,342.115,343.033,345.068,344.834,348.059Zm-73.761-37.325-.422.35c5.935,8.473,11.869,16.946,17.65,25.2C287.613,324.556,280.108,317.127,271.073,310.734ZM252.125,231.6c-3.63,1.132-6.906,2.163-10.188,3.175a41.687,41.687,0,0,0-12.654,6.54c-1.852,1.379-3.825,2.6-5.788,3.824a24.118,24.118,0,0,1-2.765,1.256,12.644,12.644,0,0,0,6.83-1.17c1.485-.632,3-1.217,4.413-1.991,6.581-3.61,13.13-7.278,19.687-10.934C251.762,232.247,251.807,232.092,252.125,231.6Zm-133.494-.381-.209.635a17.97,17.97,0,0,0,2.763,1.3c2.219.631,4.462,1.225,6.731,1.633,8.129,1.464,16.266,2.9,24.415,4.239,6.49,1.069,13,1.989,19.507,2.98.953.145,1.9.317,2.853.477l.087-.444c-2.728-.545-5.443-1.168-8.186-1.619-6.424-1.057-12.906-1.816-19.285-3.095-8.029-1.609-15.975-3.637-23.968-5.432C121.8,231.548,120.2,231.44,118.631,231.222Zm114.142,40.248a15.787,15.787,0,0,1,1.005,1.789,35.557,35.557,0,0,1,2.231,5.855c1.063,4.975-.6,8.2-5.079,10.59-.654.349-1.321.68-2.149,1.106,3.039,1.255,6.258.4,7.71-2.22a41.064,41.064,0,0,0,2.581-6.395,4.3,4.3,0,0,0,.059-2.282A13.4,13.4,0,0,0,232.773,271.469Zm-83.314-39.6c3.133.23,6.285-1.538,7.134-3.977,1.033-2.968.542-6.014.083-9.086C153.732,222.862,153.461,228.239,149.459,231.869Zm144.478,29.419c-1.656,2.533-3.077,5-4.794,7.247a19.428,19.428,0,0,1-6.535,5.328,11.707,11.707,0,0,0,6.326-1.067,6.871,6.871,0,0,0,4.2-5.365C293.469,265.449,293.663,263.444,293.937,261.288Zm-98.626,27.821c1.169.564,1.912.947,2.674,1.284q7.1,3.153,14.215,6.283c.078.035.2-.027.216-.029A24.286,24.286,0,0,0,195.311,289.109Z" transform="translate(0 0)" fill="#7c7b7a"/>
  </g>
</svg>
