<?xml version="1.0" encoding="utf-8"?>
<!-- Generator: Adobe Illustrator 17.0.0, SVG Export Plug-In . SVG Version: 6.00 Build 0)  -->
<!DOCTYPE svg PUBLIC "-//W3C//DTD SVG 1.1//EN" "http://www.w3.org/Graphics/SVG/1.1/DTD/svg11.dtd">
<svg version="1.1" id="Layer_1" xmlns="http://www.w3.org/2000/svg" xmlns:xlink="http://www.w3.org/1999/xlink" x="0px" y="0px"
	 width="358.787px" height="208.082px" viewBox="0 0 358.787 208.082" enable-background="new 0 0 358.787 208.082"
	 xml:space="preserve">
<g>
	<path fill="#FCC30A" d="M258.24,125.814c-3.251,5.796-6.517,10.666-8.816,15.956c-2.986,6.87-7.734,8.917-14.771,6.864
		c-0.377-0.649,0.157-1.315,0.554-2.03c10.245-18.463,20.439-36.954,30.787-55.359c1.086-1.931,1.213-5.428,4.679-4.898
		c3.336,0.511,5.159,2.826,5.229,6.711c3.621-3.07,6.74-6.077,11.029-7.318c7.682-2.224,13.644,2.141,12.237,9.94
		c-2.982,16.53-12.299,28.956-27.177,36.657C264.842,136.039,260.421,133.631,258.24,125.814z M288.655,93.334
		c-0.329-1.656-0.276-3.345-1.888-4.043c-2.172-0.941-3.923,0.318-5.374,1.674c-9.825,9.182-16.147,20.526-20.138,33.242
		c-0.533,1.699-1.014,3.744,0.688,5.107c1.848,1.479,3.473-0.02,4.947-0.959c1.53-0.974,2.992-2.12,4.281-3.395
		c7.323-7.244,12.58-15.82,16.008-25.506C287.892,97.438,288.197,95.278,288.655,93.334z"/>
	<path fill="#FCC40C" d="M216.558,100.766c-3.91,6.717-8.097,12.497-12.784,17.851c-2.419,2.764-2.405,5.138-0.824,8.104
		c3.786,7.107,12.226,10.241,19.672,7.187c6.592-2.703,9.215-9.5,6.49-17.722c-1.725-5.207-3.96-10.244-5.895-15.383
		c-3.15-8.363-1.321-16.689,4.638-21.411c6.468-5.126,18.49-5.662,24.978-1.034c3.783,2.698,5.994,6.307,5.283,11.1
		c-0.653,4.396-3.489,7.112-7.602,8.424c-4.325,1.38-8.725-0.378-9.709-3.688c-1.098-3.695,2.183-7.864,6.727-9.019
		c1.485-0.378,4.172,1.428,4.365-1.559c0.167-2.583-1.804-4.209-4.056-5.185c-4.181-1.813-8.208-1.307-11.776,1.456
		c-3.481,2.697-3.765,6.361-2.729,10.397c1.588,6.189,4.783,11.695,7.231,17.517c3.47,8.256,5.215,16.355-1.994,23.639
		c-6.846,6.917-19.513,9.313-28.391,5.513c-8.4-3.595-13.121-12.971-11.217-22.272C200.725,106.082,207.31,100.624,216.558,100.766z
		"/>
	<path fill="#FCC30B" d="M96.835,5.06C79.843,10.206,68.283,22.215,58.13,35.903C43.907,55.076,33.414,76.489,21.643,97.132
		c-3.541,6.21-7.056,12.438-10.433,18.738c-0.95,1.773-3.066,3.83-1.244,5.821c1.634,1.785,3.656-0.55,5.562-0.646
		c0.429,0.349,0.858,0.698,1.287,1.047c-2.431,2.182-5.39,3.321-8.506,3.909c-5.175,0.977-8.394-1.872-8.306-7.161
		c0.048-2.894,0.93-5.629,2.281-8.113c13.357-24.563,25.812-49.691,43.746-71.444C59.261,23.232,74.303,9.612,94.915,3.67
		c0.632-0.182,1.299-0.243,1.949-0.36C96.855,3.893,96.845,4.477,96.835,5.06z"/>
	<path fill="#FCC40D" d="M335.76,124.076c-1.812,1.146-3.521,2.521-5.456,3.395c-6.654,3.004-9.486,1.426-10.709-6.144
		c-2.582,1.911-4.876,3.943-7.474,5.451c-3.54,2.055-7.412,3.388-11.225,0.638c-3.68-2.654-3.682-6.715-2.709-10.44
		c3.376-12.938,10.941-22.926,22.286-30.007c1.109-0.692,2.406-1.164,3.678-1.502c5.971-1.587,8.654,0.021,10.568,6.628
		c3.31-4.461,7.479-6.594,13.592-5.73c-4.925,8.956-9.622,17.495-14.318,26.034c-1.6,2.91-3.268,5.785-4.764,8.748
		c-0.558,1.106-1.898,2.442-0.875,3.594c1.3,1.465,2.706-0.079,4.009-0.611c0.763-0.312,1.492-0.707,2.236-1.064
		C334.986,123.402,335.373,123.739,335.76,124.076z M306.702,121.271c-0.036,2.062-0.073,3.458,1.329,4.222
		c2.049,1.116,3.624-0.245,4.919-1.393c9.214-8.161,15.302-18.344,18.847-30.06c0.505-1.67,1.062-3.913-0.726-5.108
		c-2.081-1.391-3.835,0.417-5.3,1.61c-8.652,7.042-14.013,16.359-17.963,26.592C307.215,118.672,306.947,120.334,306.702,121.271z"
		/>
	<path fill="#FCC40E" d="M169.788,117.092c-7.714,6.654-16.312,10.425-26.774,8.431c-6.993-1.333-10.964-5.501-12.148-12.447
		c-0.363-0.67-0.726-1.34-1.089-2.011c1.311-1.644,1.352-3.716,1.861-5.621c3.88-14.509,17.597-26.833,32.082-28.783
		c6.488-0.873,12.052,1.032,13.786,4.721c1.784,3.795-0.606,9.714-5.807,13.78c-7.287,5.697-15.929,8.369-24.811,9.905
		c-5.158,0.892-5.782,4.169-6.161,8.093c-0.407,4.214,0.768,7.568,5.175,9.115c2.767,0.972,5.515,0.944,8.363,0.398
		c5.359-1.027,9.909-3.77,14.459-6.546C169.078,116.449,169.433,116.771,169.788,117.092z M144.711,102.979
		c10.798-2.181,18.371-8.18,22.63-18.178c0.771-1.811,1.615-4.05-0.107-5.598c-2.143-1.927-4.137,0.033-5.734,1.237
		C153.766,86.274,148.784,94.255,144.711,102.979z"/>
	<path fill="#FCC40D" d="M121.818,120.139c-2.769,2.775-6.187,4.446-9.888,5.474c-5.559,1.544-9.211-1.477-8.737-7.231
		c0.347-4.21,2.11-7.982,4.133-11.636c3.935-7.109,7.873-14.217,11.762-21.352c0.772-1.417,2.021-3.184,0.465-4.504
		c-1.228-1.042-2.836,0.205-4.073,0.939c-2.271,1.349-4.441,2.867-6.653,4.314c-0.348-0.324-0.695-0.649-1.043-0.973
		c3.79-3.852,8.175-6.79,13.415-8.217c5.118-1.394,8.52,1.287,8.468,6.597c-0.039,3.933-1.644,7.434-3.466,10.815
		c-3.94,7.315-7.987,14.573-11.874,21.916c-0.874,1.652-2.975,3.72-1.272,5.326c1.627,1.534,3.55-0.706,5.285-1.467
		c0.754-0.331,1.476-0.735,2.213-1.105C120.975,119.405,121.396,119.772,121.818,120.139z"/>
	<path fill="#FCC40C" d="M16.814,122.091c-0.429-0.349-0.858-0.698-1.287-1.047c9.107-6.196,16.36-13.95,21.092-24.053
		c2.535-5.411,5.652-10.553,8.597-15.765c1.055-1.867,1.515-4.798,4.944-3.356c3.144,1.322,4.942,3.495,4.154,6.98
		c-0.432,1.912-1.283,3.78-2.223,5.517c-4.831,8.921-9.782,17.777-14.609,26.701c-0.747,1.381-2.37,3.142-1.093,4.501
		c1.595,1.698,3.386-0.208,4.868-1.014c2.47-1.344,4.774-2.992,7.149-4.512c0.507,0.059,1.013,0.117,1.519,0.176
		c-3.339,4.086-7.63,6.899-12.469,8.776c-7.076,2.746-10.46,0.337-10.488-7.181c-0.003-0.778,0.318-1.638-0.722-2.446
		C22.731,116.959,20.63,120.796,16.814,122.091z"/>
	<path fill="#FCC40C" d="M107.783,85.172c0.348,0.324,0.695,0.649,1.043,0.973c-10.716,9.55-15.588,22.895-22.61,34.843
		c-1.295,2.204-1.928,5.282-5.732,3.565c-3.284-1.483-4.269-3.975-3.546-7.301c0.645-2.971,2.397-5.447,3.821-8.059
		c4.208-7.716,8.508-15.381,12.655-23.129c0.814-1.52,2.547-3.474,1.112-4.99c-1.747-1.845-3.556,0.414-5.258,1.111
		c-1.21,0.496-2.304,1.278-3.449,1.932c-0.352-0.319-0.703-0.637-1.055-0.956c2.712-2.768,6.066-4.506,9.638-5.823
		c2.705-0.997,5.544-1.661,7.828,0.84c2.084,2.281,2.272,5.038,1.181,7.843c-0.255,0.656-0.458,1.162-0.032,1.834
		C105.534,88.123,106.017,85.56,107.783,85.172z"/>
	<path fill="#FCC30B" d="M84.765,83.161c0.352,0.319,0.703,0.637,1.055,0.956c-12.009,9.279-17.189,23.26-24.681,35.664
		c-1.262,2.09-1.309,6.188-5.524,4.969c-3.883-1.123-4.938-4.052-4.31-7.811c0.039-0.233-0.317-0.533-0.489-0.8
		c0.222,0.025,0.443,0.048,0.664,0.072c-0.039-0.196-0.078-0.393-0.118-0.589c-0.168,0.193-0.335,0.387-0.503,0.58l-0.468-0.028
		c0,0-0.466,0.046-0.466,0.046c-0.506-0.059-1.012-0.117-1.519-0.176c10.171-9.352,14.608-22.37,21.645-33.729
		c1.154-1.863,1.18-5.458,4.826-4.585c3.518,0.843,5.329,3.178,4.9,6.967c-0.045,0.401,0.179,0.834,0.337,1.499
		C81.799,85.095,83.282,84.128,84.765,83.161z"/>
	<path fill="#FBC619" d="M214.37,186.617c-16.132,13.918-33.801,21.845-54.623,21.451c-9.509-0.18-17.312-4.342-23.414-11.623
		c-1.518-1.812-2.766-3.806-2.378-6.346c0.271-1.775,1.262-3.312,2.933-3.727c2.261-0.561,1.964,1.768,2.447,2.945
		c4.797,11.675,13.125,17.076,26.267,16.444c14.678-0.705,27.638-5.892,38.192-16.229
		C206.762,186.627,209.729,185.608,214.37,186.617z"/>
	<path fill="#FBC619" d="M96.835,5.06c0.01-0.583,0.02-1.167,0.03-1.75c17.939-6.552,35.037-3.243,44.931,8.746
		c2.329,2.822,4.173,5.851,1.193,9.333c-1.484,1.734-2.642,2.044-3.842-0.656c-6.624-14.9-14.754-19.528-31.058-17.747
		C104.307,3.4,100.585,4.355,96.835,5.06z"/>
	<path fill="#FCCD31" d="M287.81,169.376c0.003-2.833-0.009-5.665,0.009-8.498c0.007-1.177-0.02-2.458,1.628-2.564
		c1.702-0.11,1.752,1.149,1.81,2.353c0.016,0.333-0.042,0.676,0.021,0.998c0.426,2.176-1.311,5.431,1.182,6.348
		c2.651,0.975,5.907,0.424,8.892,0.327c1.93-0.063,1.633-1.748,1.674-3.026c0.054-1.665,0.004-3.333,0.042-4.998
		c0.025-1.102,0.449-1.958,1.708-2c1.271-0.042,1.786,0.787,1.791,1.895c0.028,6.331,0.031,12.662-0.002,18.993
		c-0.006,1.173-0.711,1.844-1.919,1.756c-0.947-0.069-1.494-0.667-1.548-1.616c-0.056-0.996-0.189-2.022-0.028-2.991
		c0.778-4.687-1.285-5.776-5.769-5.833c-4.784-0.06-6.711,1.261-6.12,6.141c0.178,1.473,1.134,4.327-1.758,4.176
		c-2.744-0.144-1.422-2.868-1.563-4.468C287.655,174.055,287.807,171.709,287.81,169.376z"/>
	<path fill="#FCC922" d="M339.684,158.507c0,7.025,0.393,14.082-0.185,21.059c-0.246,2.97-2.23,0.456-2.972-0.331
		c-4.324-4.59-8.524-9.296-13.286-14.536c-1.158,4.601-0.23,8.656-0.573,12.615c-0.105,1.208,0.706,3.205-1.083,3.341
		c-1.987,0.15-1.316-1.901-1.328-3.062c-0.065-6.403-0.031-12.807-0.031-19.211c0.431-0.154,0.862-0.308,1.293-0.462
		c4.971,5.393,9.943,10.786,15.299,16.597c1.38-5.753-0.496-11.076,1.125-16.045C338.524,158.483,339.104,158.495,339.684,158.507z"
		/>
	<path fill="#FCCA24" d="M241.93,169.586c0.003-7.472,3.765-11.523,10.684-11.504c6.939,0.019,10.935,4.142,11.004,11.355
		c0.071,7.406-4.132,11.886-11.107,11.839C245.693,181.23,241.927,177.069,241.93,169.586z M245.557,168.788
		c-0.081,7.542,2.023,10.459,7.515,10.415c5.15-0.042,6.784-2.101,6.888-8.68c0.113-7.167-2.299-10.425-7.703-10.407
		C247.03,160.133,245.631,161.944,245.557,168.788z"/>
	<path fill="#FCC71C" d="M187.915,105.719c6.098,12.544,2.111,30.008-8.162,37.537c-1.946,1.426-4.013,2.457-6.454,1.228
		c-1.07-0.539-2.065-1.407-2.133-2.594c-0.069-1.208,1.281-1.258,2.14-1.664c12.492-5.909,16.881-14.292,14.847-28.135
		C187.875,110.196,186.993,108.295,187.915,105.719z"/>
	<path fill="#FBC619" d="M357.656,117.213c2.603,12.131,1.076,23.179-8.437,32.126c-1.722,1.62-3.541,3.08-6.107,2.924
		c-1.832-0.112-3.407-1.061-3.786-2.741c-0.424-1.878,1.698-1.67,2.753-2.148c12.217-5.533,15.934-13.552,13.881-30.166
		C356.525,117.209,357.091,117.211,357.656,117.213z"/>
	<path fill="#FCC922" d="M283.732,179.349c-4.015,2.408-8.077,2.824-12.076,0.643c-3.618-1.973-5.215-8.402-3.822-14.045
		c1.048-4.242,3.634-6.999,8.07-7.744c0.811-0.136,1.687-0.25,2.475-0.09c1.628,0.332,4.657-0.809,4.587,1.331
		c-0.108,3.256-3.092,1.303-4.715,1.137c-4.492-0.457-7.084,1.061-7.218,5.821c-0.042,1.491-0.171,2.989-0.087,4.473
		c0.405,7.183,2.592,8.944,9.822,8.084C281.648,178.856,282.595,177.984,283.732,179.349z"/>
	<path fill="#FCC40C" d="M58.096,69.276c-2.596-0.182-4.956-1.422-5.123-4.937c-0.153-3.239,3.737-6.511,7.595-6.448
		c3.234,0.053,5.487,1.575,5.715,4.974C66.499,66.079,62.481,69.319,58.096,69.276z"/>
	<path fill="#F4C522" d="M238.52,179.276c-7.156,2.89-11.318,2.362-13.973-1.041c-2.853-3.657-3.086-11.585-0.461-15.655
		c2.48-3.844,7.737-5.659,12.392-4.328c0.845,0.242,1.655,0.396,1.462,1.531c-0.17,1.001-0.877,1.312-1.806,1.25
		c-0.331-0.022-0.658-0.094-0.989-0.115c-8.526-0.532-9.621,0.541-9.428,9.234c0.166,7.479,1.851,9.123,9.098,8.923
		C235.623,179.052,236.431,179.157,238.52,179.276z"/>
	<path fill="#FBC619" d="M314.992,170.023c-0.002,2.816,0.027,5.632-0.017,8.446c-0.017,1.131,0.077,2.516-1.687,2.387
		c-1.291-0.095-1.458-1.118-1.458-2.167c0-5.962-0.002-11.925,0.009-17.887c0.002-1.196,0.061-2.508,1.725-2.386
		c1.684,0.123,1.393,1.58,1.412,2.664C315.028,164.06,314.995,167.042,314.992,170.023z"/>
	<path fill="#FCCD31" d="M357.656,117.213c-0.565-0.002-1.131-0.004-1.696-0.006c-1.036-3.459-2.073-6.919-3.212-10.723
		c-1.619,1.249-3.348,1.763-4.026,4.296c-0.389-4.069,2.866-5.355,3.83-9.199C355.596,107.396,356.997,112.18,357.656,117.213z"/>
	<path fill="#FCCA24" d="M169.788,117.092c-0.355-0.322-0.71-0.644-1.065-0.965c5.471-5.048,10.494-10.499,14.859-16.54
		c0.097,0.566,0.193,1.13,0.289,1.695C180.345,107.592,175.805,113.001,169.788,117.092z"/>
	<path fill="#FCCA24" d="M335.76,124.076c-0.387-0.337-0.773-0.674-1.16-1.011c4.233-3.324,8.21-6.933,12.069-10.723
		C344.206,117.353,340.439,121.133,335.76,124.076z"/>
	<path fill="#FCC71C" d="M121.818,120.139c-0.422-0.367-0.844-0.735-1.266-1.102c3.074-2.657,6.149-5.314,9.223-7.971
		c0.363,0.67,0.726,1.341,1.089,2.011C127.246,114.658,125.513,118.655,121.818,120.139z"/>
	<path fill="#FCCD31" d="M183.872,101.281c-0.096-0.565-0.193-1.129-0.289-1.695c0.357-1.212,0.603-2.853,2.069-2.828
		c1.396,0.024,0.951,1.765,1.336,2.728c0.348,0.872,0.481,1.83,0.709,2.75c-0.405,0.489-0.81,0.979-1.216,1.468
		C185.529,102.985,185.983,100.753,183.872,101.281z"/>
	<path fill="#FCC71C" d="M186.48,103.705c0.405-0.489,0.81-0.979,1.216-1.468c0.233,0.998,1.042,2.264,0.001,2.914
		C186.933,105.629,186.653,104.426,186.48,103.705z"/>
</g>
</svg>
