<svg id="Quotemarks-right" xmlns="http://www.w3.org/2000/svg" width="161.504" height="114.007" viewBox="0 0 161.504 114.007">
  <path id="Path_2325" data-name="Path 2325" d="M35.816,9.412a35.818,35.818,0,0,0-2.077,71.575c.325,3.512.081,13.071-9.079,26.369a2.522,2.522,0,0,0,.293,3.216c3.749,3.749,6.065,6.109,7.687,7.761,2.122,2.159,3.091,3.145,4.508,4.431a2.524,2.524,0,0,0,3.352.037c15.962-13.89,33.694-42.588,31.128-77.755C70.124,24.4,55.064,9.412,35.816,9.412Zm3.051,108.036c-.687-.678-1.471-1.476-2.627-2.652-1.4-1.432-3.332-3.393-6.255-6.326C41.1,91.339,39,79.138,38.084,77.388A2.614,2.614,0,0,0,35.816,76a30.77,30.77,0,0,1,0-61.539c16.527,0,29.47,13.017,30.778,30.951C69.478,84.964,45.97,110.646,38.867,117.447Z" transform="translate(-0.001 -9.412)" fill="#fab502"/>
  <path id="Path_2326" data-name="Path 2326" d="M107.147,45.045v0C105.639,24.4,90.576,9.412,71.334,9.412a35.817,35.817,0,0,0-2.075,71.575c.325,3.509.079,13.064-9.084,26.369a2.522,2.522,0,0,0,.293,3.216c3.734,3.734,6.045,6.09,7.667,7.738,2.132,2.174,3.105,3.164,4.53,4.456a2.523,2.523,0,0,0,3.352.032C91.978,108.908,109.71,80.21,107.147,45.045Zm-32.762,72.4c-.692-.683-1.483-1.486-2.649-2.674-1.4-1.43-3.324-3.386-6.235-6.3,11.117-17.133,9.02-29.332,8.1-31.081A2.622,2.622,0,0,0,71.334,76a30.77,30.77,0,1,1,0-61.539c16.524,0,29.47,13.017,30.781,30.953v0C105,84.959,81.487,110.646,74.385,117.447Z" transform="translate(54.108 -9.412)" fill="#fab502"/>
</svg>
