<?xml version="1.0" encoding="utf-8"?>
<!-- Generator: Adobe Illustrator 17.0.0, SVG Export Plug-In . SVG Version: 6.00 Build 0)  -->
<!DOCTYPE svg PUBLIC "-//W3C//DTD SVG 1.1//EN" "http://www.w3.org/Graphics/SVG/1.1/DTD/svg11.dtd">
<svg version="1.1" id="Layer_1" xmlns="http://www.w3.org/2000/svg" xmlns:xlink="http://www.w3.org/1999/xlink" x="0px" y="0px"
	 width="368.712px" height="731.946px" viewBox="-1015.145 -53.736 368.712 731.946"
	 enable-background="new -1015.145 -53.736 368.712 731.946" xml:space="preserve">
<g opacity="0.05">
	<path fill="#FFFFFF" d="M-798.846,678.209c-12.135,0-23.417-3.896-33.538-11.583c-11.865-9.013-21.045-21.712-29.923-33.993
		c-2.146-2.969-4.366-6.039-6.568-8.977c-1.974-2.632-4.047-5.307-6.051-7.894c-10.204-13.169-20.756-26.787-24.889-42.856
		c-0.212-0.811-0.098-1.645,0.32-2.36c0.418-0.715,1.089-1.224,1.89-1.434c0.244-0.063,0.496-0.098,0.748-0.101l61.198,1.088
		c2.238,0.039,4.478,0.074,6.718,0.109c17.523,0.276,35.642,0.561,53.207,3.077c18.26,2.614,29.626,9.122,38.006,21.76
		c11.461,17.28,15.193,37.849,16.306,52.06c0.063,0.81-0.116,1.45-0.533,1.9c-0.47,0.508-1.247,0.8-2.131,0.8
		c-1.146,0-2.234-0.501-2.841-1.306l-1.19-1.58l-1.593,1.173c-19.039,14.021-44.103,30.113-69.128,30.116
		C-798.841,678.209-798.845,678.209-798.846,678.209z M-891.79,577.934c4.593,11.931,12.577,22.284,20.298,32.297
		c1.652,2.142,3.294,4.272,4.893,6.403c2.261,3.016,4.539,6.146,6.741,9.171c8.371,11.504,17.026,23.398,27.672,33.143
		c9.661,8.84,20.87,13.321,33.317,13.321c23.319,0,47.336-15.497,67.754-30.657c0.385-0.286,0.763-0.468,1.124-0.541l1.855-0.376
		l-0.274-1.874c-2.126-14.527-7.061-28.261-14.667-40.819c-10.292-16.766-29.37-18.565-44.699-20.012
		c-25.869-2.442-52.451-2.534-78.158-2.623c-7.867-0.027-16.001-0.056-23.967-0.151l-2.951-0.035L-891.79,577.934z"/>
	<path fill="#FFFFFF" d="M-881.928,510.759c-5.185,0-10.405-0.52-15.516-1.545c-14.152-2.872-27.084-10.531-36.41-21.563
		c-6.166-7.379-10.285-16.364-14.268-25.054c-2.916-6.36-5.93-12.938-9.76-18.965c-0.561-0.883-1.179-1.753-1.834-2.675
		c-3.365-4.736-5.409-8.118-3.243-11.816c2.452-4.185,8.736-4.87,14.281-5.475c1.397-0.152,2.717-0.297,3.937-0.493
		c12.271-1.979,26.814-4.002,41.643-4.002c5.59,0,11.029,0.295,16.165,0.875c17.771,2.009,33.79,8.146,46.324,17.748
		c13.517,10.354,22.999,24.79,30.492,37.545c0.52,0.885,0.599,1.737,0.233,2.535c-0.437,0.954-1.481,1.731-2.599,1.936l-0.716,0.131
		l-0.464,0.56c-0.098,0.119-0.208,0.235-0.33,0.35c-20.572,19.285-44.697,29.907-67.929,29.909
		C-881.924,510.759-881.926,510.759-881.928,510.759z M-902.424,425.133c-7.2,0-14.842,0.501-24.78,1.625
		c-7.933,0.894-15.918,2.238-23.642,3.538l-2.971,0.499c-1.957,0.327-2.689,1.321-2.959,2.098c-0.654,1.882,0.82,3.51,2.12,4.945
		c0.347,0.384,0.675,0.746,0.882,1.025c2.157,3.063,4.125,6.349,5.821,9.73c2.026,3.824,3.848,7.826,5.61,11.696
		c3.813,8.375,7.757,17.034,13.913,24.399c7.518,8.996,18.868,15.46,32.824,18.693c4.653,1.077,9.473,1.624,14.327,1.624
		c28.366,0,51.571-17.783,62.878-28.384l1.191-1.116l-0.791-1.45c-7.426-12.079-14.604-21.104-22.592-28.403
		c-9.932-9.075-22.944-15.128-39.78-18.506C-887.125,425.792-894.339,425.133-902.424,425.133z"/>
	<path fill="#FFFFFF" d="M-698.307,318.5c-1.452,0-2.973-1.188-3.322-2.593l-0.314-1.262l-1.28-0.226
		c-18.393-3.239-35.5-13.65-50.846-30.942c-13.103-14.753-28.858-37.164-29.514-60.145c-0.648-22.766,15.866-45.482,28.343-60.589
		c14.264-17.332,32.871-30.76,53.811-38.833c0.179-0.068,0.386-0.104,0.609-0.104c0.981,0,2.139,0.681,2.634,1.55
		c10.06,17.579,19.948,35.559,29.391,53.443c1.636,3.099,3.352,6.178,5.168,9.438c7.542,13.537,15.342,27.534,16.841,42.114
		c3.701,35.971-22.423,62.854-49.499,87.305C-696.903,318.216-697.583,318.5-698.307,318.5z M-703.804,131.377
		c-16.17,6.857-31.126,17.815-44.453,32.569c-12.997,14.386-28.617,36.366-29.224,59.388c-0.312,11.83,5.829,22.802,10.762,31.618
		c4.772,8.524,10.417,16.603,16.778,24.013c14.327,16.699,31.705,27.042,50.255,29.909c0.488,0.075,0.891,0.224,1.196,0.439
		l1.316,0.931l1.189-1.088c24.101-22.053,49.24-48.461,42.393-82.844c-1.57-7.872-5.28-15.079-8.869-22.049
		c-0.431-0.837-0.86-1.671-1.284-2.503c-4.184-8.21-8.503-16.502-12.837-24.646c-7.963-15.02-16.276-30.124-24.705-44.889
		l-0.881-1.544L-703.804,131.377z"/>
	<path fill="#FFFFFF" d="M-897.911,178.949c-1.156,0-2.386-0.901-2.925-2.143c-0.336-0.774-0.513-1.931,0.506-3.101l0.096-0.103
		c14.347-15.327,25.664-32.946,33.637-52.368c10.034-24.488,13.355-46.239,9.87-64.65c-6.616-34.941-42.22-54.866-70.829-70.876
		c-2.879-1.611-5.696-3.188-8.415-4.74l-43.8-25.01c-0.08-0.05-0.242-0.167-0.452-0.314c-1.948-1.374-3.995-2.714-5.735-2.714
		c-1.278,0-2.324,0.728-2.73,1.9c-0.896,2.585-1.648,5.249-2.376,7.824c-0.26,0.92-0.52,1.839-0.785,2.753
		c-6.288,21.617-11.282,43.849-14.844,66.079c-4.127,25.759-3.326,45.932,2.52,63.483c5.277,15.841,17.254,30.191,34.636,41.5
		c20.962,13.641,45.641,20.35,67.126,25.567c2.119,0.514,2.145,2.26,2.058,2.987c-0.176,1.477-1.247,2.973-2.952,2.973
		c-0.269,0-0.554-0.036-0.848-0.107c-32.654-7.922-66.022-18.616-88.883-43.012c-27.099-28.918-24.186-69.484-17.762-105.352
		c4.043-22.261,9.483-44.515,16.169-66.137c0.817-2.664,2.906-7.126,7.73-7.126c0.914,0,1.896,0.16,2.919,0.476
		c2.826,0.872,5.706,2.704,8.491,4.477c1.216,0.774,2.474,1.574,3.699,2.273l17.033,9.726c5.625,3.211,11.528,6.435,17.238,9.553
		c27.463,14.996,55.861,30.502,74.393,55.136c14.489,19.26,17.304,44.333,8.604,76.652c-7.183,26.685-21.53,52.085-41.491,73.455
		C-896.594,178.633-897.232,178.948-897.911,178.949z"/>
</g>
</svg>
