<svg width="78" height="78" viewBox="0 0 78 78" fill="none" xmlns="http://www.w3.org/2000/svg">
<path d="M26.242 70.9268V69.5338H72.859C73.7174 69.5317 74.5401 69.1899 75.1473 68.5832C75.7546 67.9765 76.0971 67.1542 76.1 66.2958V61.0468C76.0976 60.1888 75.7559 59.3666 75.1494 58.7598C74.5429 58.1529 73.721 57.8107 72.863 57.8078H4.635C3.77756 57.8112 2.95626 58.1535 2.35024 58.7601C1.74421 59.3667 1.40263 60.1883 1.4 61.0458V66.2948C1.39983 67.0033 1.63164 67.6924 2.06 68.2568L1.12 69.3098C0.399918 68.47 0.0028146 67.401 0 66.2948L0 61.0468C0.00476949 60.2533 0.212913 59.4742 0.604549 58.7841C0.996185 58.094 1.55823 57.5158 2.237 57.1048L2.961 56.6698L2.325 56.1138C1.42446 55.3274 0.7478 54.3169 0.363598 53.1848C-0.0206037 52.0526 -0.0986948 50.839 0.137239 49.667C0.373173 48.4949 0.914746 47.406 1.70708 46.5107C2.4994 45.6154 3.51433 44.9455 4.649 44.5688C4.874 44.4928 5.098 44.4278 5.335 44.3588L5.655 44.2648L5.884 44.1958L10.2 36.9288C11.0381 35.5263 12.1754 34.3262 13.5308 33.414C14.8862 32.5018 16.4262 31.9001 18.041 31.6518L18.727 31.5398L18.527 30.8728C18.2812 30.0348 18.3064 29.1406 18.599 28.3178C18.8915 27.4949 19.4364 26.7855 20.156 26.2908L20.601 25.9838L20.353 25.5028C19.3524 23.5558 18.8316 21.3978 18.834 19.2088C18.8324 18.5929 18.8742 17.9777 18.959 17.3678C19.2152 15.4318 19.8828 13.5732 20.917 11.9168L21.128 11.5788L20.905 11.2488C20.3335 10.3907 19.9519 9.42038 19.7858 8.40286C19.6197 7.38533 19.673 6.34406 19.942 5.34878C20.211 4.3535 20.6895 3.42719 21.3456 2.63186C22.0016 1.83654 22.82 1.19057 23.746 0.73722C24.672 0.283866 25.6841 0.0335912 26.7146 0.00315458C27.7452 -0.027282 28.7703 0.162823 29.7214 0.560738C30.6725 0.958653 31.5277 1.55519 32.2295 2.31041C32.9313 3.06563 33.4637 3.96209 33.791 4.93976L33.915 5.31476L34.308 5.35876C34.395 5.36776 34.485 5.37476 34.576 5.38176C34.693 5.38976 34.804 5.39776 34.892 5.41276C36.7786 5.68705 38.5853 6.35961 40.192 7.38576C42.5806 8.87925 44.4547 11.0684 45.562 13.6588L45.776 14.1588L46.299 14.0078C47.2418 13.7331 48.2517 13.8038 49.1471 14.207C50.0426 14.6103 50.7648 15.3197 51.184 16.2078L52.166 18.2878C52.6281 19.2798 52.6798 20.4141 52.3099 21.444C51.9401 22.474 51.1786 23.3163 50.191 23.7878L49.73 24.0068L49.86 24.5008C50.4062 26.5725 50.659 28.7107 50.611 30.8528L50.597 31.4818H57.729C59.6405 31.477 61.5221 31.9557 63.1989 32.8732C64.8757 33.7908 66.2934 35.1174 67.32 36.7298L71.483 43.4108L71.743 43.4638C73.3706 43.7993 74.832 44.6876 75.8793 45.9779C76.9266 47.2681 77.4953 48.881 77.489 50.5428C77.491 51.5809 77.2713 52.6075 76.8447 53.5539C76.418 54.5004 75.7942 55.3448 75.015 56.0308L74.361 56.6058L75.121 57.0288C75.8361 57.428 76.4322 58.0102 76.8482 58.7157C77.2641 59.4213 77.4849 60.2247 77.488 61.0438V66.2898C77.4848 67.5174 76.9957 68.6939 76.1275 69.5619C75.2593 70.4299 74.0827 70.9189 72.855 70.9218H26.242V70.9268ZM37.426 53.7358C37.447 53.7358 37.468 53.7358 37.489 53.7358L67.642 56.4098H70.367C71.8469 56.3747 73.2588 55.7818 74.3201 54.7498C75.3814 53.7179 76.0136 52.3231 76.0901 50.8448C76.1666 49.3665 75.6817 47.9138 74.7326 46.7779C73.7836 45.6419 72.4403 44.9064 70.972 44.7188C70.7729 44.695 70.5725 44.6829 70.372 44.6828H70.072L53.366 46.1688L36.3 48.6038L18.336 55.2208L18.548 56.4138H29.448L37.209 53.7758C37.2782 53.7502 37.3513 53.737 37.425 53.7368L37.426 53.7358ZM12.525 44.2958C9.99565 44.5491 7.50213 45.0817 5.09 45.8838C3.86956 46.2865 2.83275 47.1113 2.16592 48.2099C1.49908 49.3085 1.24594 50.609 1.45198 51.8775C1.65803 53.1461 2.30974 54.2996 3.29001 55.1307C4.27029 55.9618 5.51483 56.416 6.8 56.4118H11.07L35.882 47.2688C35.9289 47.2513 35.9775 47.2389 36.027 47.2318L52.727 44.8488L49.011 42.0608H34.781L12.525 44.2958ZM50.453 33.4188C50.402 33.8318 50.34 34.2318 50.269 34.6078C49.9256 36.4382 49.2009 38.1758 48.142 39.7078L47.477 40.6728H49.247C49.3963 40.673 49.5415 40.7214 49.661 40.8108L54.777 44.6488L69.801 43.3488L66.141 37.4688C65.2401 36.0564 63.9968 34.8948 62.5266 34.0918C61.0565 33.2888 59.4072 32.8705 57.732 32.8758H50.52L50.453 33.4188ZM18.991 32.9368C17.4439 33.0618 15.9487 33.5533 14.6291 34.3705C13.3094 35.1878 12.2033 36.3074 11.402 37.6368L7.825 43.6518L9.172 43.3918C10.345 43.1648 11.396 43.0068 12.384 42.9088L31.2 41.0268L30.064 40.0878C28.5273 38.8147 27.1614 37.3486 26 35.7258L25.691 35.2938L25.211 35.5398L25.196 35.5468C24.6544 35.7997 24.0638 35.9305 23.466 35.9298C22.6805 35.9284 21.9116 35.7032 21.2494 35.2807C20.5872 34.8581 20.0591 34.2556 19.727 33.5438L19.427 32.8998L18.991 32.9368ZM20.241 19.2848C20.2474 21.2704 20.7313 23.2254 21.652 24.9848L25.433 32.2468C25.7532 32.8655 26.1067 33.4663 26.492 34.0468C28.2327 36.7324 30.5434 39.0017 33.26 40.6938L33.412 40.7878L45.485 40.6688L45.659 40.5108C45.9835 40.2167 46.2844 39.8978 46.559 39.5568C47.7441 38.0355 48.5472 36.2524 48.901 34.3568C49.0383 33.622 49.1314 32.8797 49.18 32.1338C49.4144 29.3354 49.0991 26.5181 48.252 23.8408C48.0494 23.1682 47.8083 22.5077 47.53 21.8628L44.342 14.3148C43.5692 12.4912 42.3752 10.8768 40.858 9.60376L40.183 9.03876L39.753 10.2328L38.443 9.76076L38.973 8.26876L38.5 8.02576C37.6742 7.59657 36.8018 7.26372 35.9 7.03376L35.3 6.88076L34.33 10.7608L32.979 10.4228L33.911 6.69276L33.146 6.66876C32.9993 6.66342 32.8527 6.66076 32.706 6.66076C31.3517 6.66048 30.0068 6.88486 28.726 7.32476L28.077 7.54876L29.959 11.5488L28.697 12.1428L26.816 8.14276L26.23 8.50176C24.8986 9.31556 23.7331 10.3738 22.795 11.6208L22.403 12.1418L25.503 14.2088L24.73 15.3688L21.69 13.3388L21.39 13.9938C21.0261 14.7875 20.7469 15.6174 20.557 16.4698L20.439 16.9988L21.909 17.5278L21.437 18.8378L20.237 18.4058L20.241 19.2848ZM20.614 27.7008C20.1914 28.0988 19.9047 28.6197 19.7945 29.1897C19.6844 29.7597 19.7562 30.3499 20 30.8768L20.986 32.9498C21.2565 33.5348 21.7257 34.0049 22.3101 34.2766C22.8945 34.5483 23.5564 34.604 24.178 34.4338L24.934 34.2268L24.553 33.5418C24.44 33.3418 24.322 33.1248 24.198 32.8888L21.206 27.1428L20.614 27.7008ZM47.452 15.2308C47.3326 15.2307 47.2134 15.2383 47.095 15.2538L46.295 15.3598L48.809 21.3108C48.859 21.4278 48.902 21.5538 48.948 21.6868C48.986 21.7978 49.024 21.9088 49.066 22.0178L49.349 22.7458L49.99 22.3008C50.5209 21.9326 50.9045 21.3886 51.0728 20.7649C51.2412 20.1412 51.1835 19.478 50.91 18.8928L49.924 16.8028C49.7022 16.3341 49.3523 15.9378 48.9146 15.6597C48.477 15.3817 47.9695 15.2333 47.451 15.2318L47.452 15.2308ZM26.9 1.39176C25.9345 1.39193 24.9842 1.63205 24.1345 2.09052C23.2848 2.54899 22.5624 3.21145 22.0322 4.01832C21.502 4.82519 21.1806 5.75119 21.0969 6.71305C21.0133 7.67491 21.17 8.64248 21.553 9.52876L21.928 10.3958L22.569 9.70176C24.9111 7.16484 28.12 5.59928 31.561 5.31476L32.51 5.23576L32.047 4.40376C31.5404 3.493 30.8001 2.73378 29.9025 2.20435C29.0048 1.67492 27.9822 1.39442 26.94 1.39176H26.9Z" fill="#FAB502"/>
<path d="M27.371 28.8842C28.7675 27.8673 30.345 27.1257 32.019 26.6992L32.298 28.0662C30.8412 28.4458 29.4673 29.092 28.246 29.9722L27.371 28.8842Z" fill="#FAB502"/>
<path d="M36.929 34.2447C38.4005 34.131 39.8131 33.6182 41.015 32.7617L41.915 33.8327C40.4673 34.887 38.7524 35.5132 36.966 35.6397L36.929 34.2447Z" fill="#FAB502"/>
<path d="M24.732 26.3749C25.2735 25.2935 26.1079 24.3859 27.14 23.7554C28.1722 23.1249 29.3606 22.797 30.57 22.8089C31.0501 22.8094 31.529 22.859 31.999 22.9569L31.599 24.2989C31.2541 24.2335 30.904 24.2001 30.553 24.1989C29.6235 24.1913 28.7098 24.4391 27.9116 24.9152C27.1133 25.3914 26.461 26.0775 26.026 26.8989L24.732 26.3749Z" fill="#FAB502"/>
<path d="M36.182 20.9901C36.7277 19.9163 37.5594 19.0141 38.5853 18.3831C39.6112 17.7521 40.7915 17.4167 41.996 17.4141C42.4851 17.4142 42.9727 17.4682 43.45 17.5751L43.029 18.9101C42.6867 18.843 42.3388 18.8095 41.99 18.8101C41.0599 18.815 40.1485 19.0719 39.3527 19.5532C38.5568 20.0346 37.9062 20.7226 37.47 21.5441L36.182 20.9901Z" fill="#FAB502"/>
<path d="M37.5128 30.8363L38.7749 30.2422L35.8738 24.0789L34.6116 24.673L37.5128 30.8363Z" fill="#FAB502"/>
<path d="M39.115 23.5356C40.511 22.5193 42.0878 21.7781 43.761 21.3516L44.042 22.7186C42.5853 23.0985 41.2115 23.7447 39.99 24.6246L39.115 23.5356Z" fill="#FAB502"/>
<path d="M17.171 77.4864C16.1959 77.485 15.2611 77.0974 14.571 76.4084L14.171 76.0084L13.738 76.3754C13.3037 76.7431 12.8109 77.0355 12.28 77.2404C11.4193 77.5724 10.4649 77.5671 9.60787 77.2256C8.75086 76.8841 8.05445 76.2315 7.658 75.3984C7.45794 74.9606 7.35859 74.4835 7.36724 74.0023C7.37589 73.521 7.49234 73.0478 7.708 72.6174L7.968 72.0934L7.459 71.8064C7.00473 71.5509 6.59394 71.2249 6.242 70.8404L6.104 70.6884C5.80427 70.3645 5.57453 69.9822 5.42914 69.5655C5.28376 69.1488 5.22584 68.7065 5.259 68.2664C5.29328 67.8218 5.41854 67.3889 5.62703 66.9946C5.83552 66.6003 6.12278 66.2531 6.471 65.9744L6.51 65.9444C6.90575 65.6223 7.36566 65.3884 7.85903 65.2582C8.35239 65.128 8.86786 65.1046 9.371 65.1894L9.943 65.2894L10.073 64.7244C10.1931 64.2032 10.4014 63.7064 10.689 63.2554C11.0123 62.7599 11.456 62.3544 11.9785 62.0769C12.501 61.7994 13.0854 61.6588 13.677 61.6684C14.3223 61.6681 14.9562 61.8378 15.515 62.1604C15.9211 62.3906 16.2762 62.701 16.5586 63.0726C16.8411 63.4443 17.045 63.8695 17.158 64.3224C17.175 64.3924 17.189 64.4624 17.201 64.5324L17.301 65.0984L17.872 65.0394C18.4621 64.9789 19.0581 65.0164 19.636 65.1504C20.0991 65.2546 20.5368 65.4497 20.9239 65.7244C21.311 65.999 21.6397 66.3478 21.891 66.7504C22.1365 67.1424 22.2961 67.5821 22.359 68.0404C22.422 68.4987 22.3869 68.9651 22.2562 69.4088C22.1255 69.8525 21.902 70.2634 21.6007 70.6143C21.2993 70.9652 20.9269 71.2482 20.508 71.4444L19.955 71.7054L20.213 72.2594C20.4422 72.752 20.5862 73.2798 20.639 73.8204C20.6814 74.2573 20.6356 74.6982 20.5044 75.117C20.3731 75.5358 20.1591 75.9239 19.875 76.2584C19.5711 76.6152 19.1986 76.9073 18.7796 77.1174C18.3606 77.3275 17.9037 77.4513 17.436 77.4814C17.344 77.4884 17.258 77.4904 17.173 77.4904L17.171 77.4864ZM15.233 71.4484C15.5148 72.4068 15.4819 73.4302 15.139 74.3684L15.047 74.6174L15.165 74.8544C15.349 75.2274 15.634 75.5413 15.9876 75.7603C16.3411 75.9794 16.7491 76.0948 17.165 76.0934C17.221 76.0934 17.277 76.0934 17.334 76.0864C17.6149 76.0695 17.8895 75.9965 18.1418 75.8718C18.3941 75.7471 18.6189 75.5732 18.803 75.3604C18.9679 75.1668 19.0922 74.9421 19.1687 74.6996C19.2451 74.457 19.2721 74.2016 19.248 73.9484C19.1431 73.1021 18.7545 72.3164 18.1455 71.7194C17.5365 71.1224 16.7432 70.7495 15.895 70.6614L14.967 70.5504L15.233 71.4484ZM9.448 72.6234C9.13014 72.8844 8.90782 73.2434 8.81589 73.6442C8.72395 74.0451 8.76761 74.4651 8.94 74.8384C9.19227 75.3412 9.62246 75.7322 10.147 75.9355C10.6714 76.1388 11.2528 76.1399 11.778 75.9384C12.2263 75.7708 12.6355 75.5132 12.9805 75.1814C13.3255 74.8497 13.599 74.4508 13.784 74.0094C14.0491 73.3678 14.102 72.6583 13.935 71.9844L13.726 71.1364L12.998 71.6184C12.1407 72.1868 11.1346 72.4894 10.106 72.4884C10.013 72.4884 9.941 72.4884 9.869 72.4824L9.632 72.4704L9.448 72.6234ZM8.778 66.5374C8.27937 66.5382 7.79547 66.7066 7.404 67.0154L7.364 67.0464C7.16101 67.2054 6.99294 67.4044 6.87027 67.6312C6.7476 67.858 6.67296 68.1076 6.651 68.3644C6.63351 68.6172 6.66825 68.8709 6.75307 69.1097C6.83789 69.3485 6.97096 69.5673 7.144 69.7524L7.278 69.8994C7.84934 70.5051 8.60136 70.9097 9.42165 71.0526C10.2419 71.1956 11.0865 71.0692 11.829 70.6924L12.709 70.2454L11.921 69.6524C11.0969 69.0344 10.4876 68.1732 10.179 67.1904L10.108 66.9654L9.908 66.8454C9.56665 66.6438 9.17746 66.5374 8.781 66.5374H8.778ZM18.414 66.4024C17.736 66.3931 17.0685 66.5698 16.484 66.9135C15.8995 67.2571 15.4205 67.7545 15.099 68.3514L14.665 69.2084L15.625 69.2444C16.6974 69.2835 17.733 69.6457 18.596 70.2834L18.766 70.4084L18.977 70.4024C19.4239 70.4041 19.859 70.2588 20.2152 69.9888C20.5714 69.7188 20.8289 69.3392 20.948 68.9084C21.0044 68.6644 21.0117 68.4116 20.9695 68.1647C20.9273 67.9178 20.8363 67.6818 20.702 67.4704C20.546 67.2257 20.3432 67.0143 20.1051 66.8484C19.8671 66.6824 19.5985 66.5652 19.315 66.5034C19.0197 66.4365 18.7178 66.403 18.415 66.4034L18.414 66.4024ZM13.674 63.0584C13.3189 63.0511 12.9677 63.1336 12.653 63.2983C12.3384 63.463 12.0704 63.7045 11.874 64.0004C11.6348 64.3761 11.4742 64.7964 11.402 65.2359C11.3298 65.6754 11.3475 66.125 11.454 66.5574C11.6453 67.3139 12.0786 67.9871 12.688 68.4744L13.349 69.0004L13.649 68.2104C14.0175 67.2403 14.6873 66.4139 15.56 65.8524L15.78 65.7124L15.832 65.4564C15.886 65.1895 15.8805 64.914 15.816 64.6494C15.7457 64.3776 15.6208 64.123 15.4488 63.901C15.2769 63.6791 15.0616 63.4945 14.816 63.3584C14.4698 63.1607 14.0777 63.0573 13.679 63.0584" fill="#FAB502"/>
</svg>
