<?xml version="1.0" encoding="utf-8"?>
<!-- Generator: Adobe Illustrator 17.0.0, SVG Export Plug-In . SVG Version: 6.00 Build 0)  -->
<!DOCTYPE svg PUBLIC "-//W3C//DTD SVG 1.1//EN" "http://www.w3.org/Graphics/SVG/1.1/DTD/svg11.dtd">
<svg version="1.1" id="Layer_1" xmlns="http://www.w3.org/2000/svg" xmlns:xlink="http://www.w3.org/1999/xlink" x="0px" y="0px"
	 width="78.074px" height="75.492px" viewBox="0 0 78.074 75.492" enable-background="new 0 0 78.074 75.492" xml:space="preserve">
<path fill="#FAB502" d="M9.351,75.489c-0.416,0-0.772-0.02-1.091-0.061c-1.996-0.255-3.426-1.848-3.477-3.873
	c-0.004-0.183,0.017-0.382,0.04-0.583c0.092-0.831,0.12-1.449-0.345-1.85c-0.26-0.225-0.637-0.334-1.151-0.334
	c-0.272,0-0.568,0.029-0.853,0.059c-0.21,0.021-0.324,0.031-0.433,0.039c-0.082,0.006-0.164,0.009-0.243,0.009
	c-0.791,0-1.337-0.279-1.72-0.878L0,67.895v-9.961l0.08-0.124c0.381-0.59,0.923-0.865,1.706-0.865c0.083,0,0.168,0.003,0.255,0.009
	c0.2,0.015,0.395,0.02,0.59,0.02c0.169,0,0.976-0.014,0.978-0.014c0.178,0,0.348,0.004,0.517,0.016
	c0.066,0.005,0.123,0.007,0.176,0.007c0.358,0,0.616-0.101,0.789-0.308c0.272-0.327,0.189-0.775,0.154-0.967
	c-0.427-2.328-0.831-4.66-1.234-6.992l-0.129-0.738c-0.091-0.515-0.176-0.992-0.196-1.469c-0.04-0.953,0.74-1.136,1.077-1.17
	c0.12-0.013,0.238-0.019,0.354-0.019c0.769,0,1.472,0.262,2.15,0.801c1.056,0.84,1.931,1.983,2.753,3.6
	c0.333,0.655,0.789,0.961,1.436,0.961c3.241,0.006,6.483,0.014,9.724,0.035c0.397,0,0.579-0.137,0.681-0.239
	c0.241-0.242,0.24-0.571,0.239-0.729c-0.008-1.8-0.012-3.6,0.003-5.399c0.004-0.56-0.317-0.841-0.598-1.023
	c-2.454-1.587-5.069-2.392-7.771-2.392c-0.566,0-1.148,0.035-1.729,0.105c-0.3,0.037-0.566,0.058-0.803,0.058
	c-0.977,0-1.274-0.336-1.527-1.709c-0.603-3.284-1.173-6.572-1.738-9.861c-0.071-0.419-0.001-0.773,0.202-1.029
	c0.213-0.27,0.57-0.428,1.033-0.457c0,0,0.177-0.006,0.178-0.006c0.757,0,1.424,0.255,2.114,0.803
	c1.175,0.933,1.999,2.208,2.678,3.331l0.204,0.337l0.375-0.12c0.452-0.145,0.626-0.503,0.73-0.717l1.43-2.327
	c1.589-2.562,3.195-5.149,4.739-7.721c1.336-2.224,2.996-3.26,5.224-3.26l1.248,0.03l-0.979-1.238
	c-0.214-0.268-0.392-0.491-0.564-0.72c-1.268-1.684-1.866-3.429-1.826-5.333l0.01-0.525c0.03-1.707,0.058-3.319,0.609-4.882
	C26.509,2.393,29.711,0,32.96,0c0.144,0,0.286,0.004,0.429,0.014c4.036,0.26,7.076,2.845,7.931,6.745
	c0.351,1.603,0.424,3.335,0.238,5.615c-0.124,1.509-0.814,2.97-2.174,4.597c-0.071,0.084-0.145,0.166-0.23,0.259l-0.818,0.909
	l0.896,0.151c0.281,0.047,0.55,0.077,0.812,0.106c0.411,0.046,0.757,0.085,1.094,0.181c2.301,0.655,3.9,2.576,4.074,4.894
	c0.136,1.813,0.105,3.729-0.094,5.854c-0.206,2.185-1.236,4.026-3.15,5.63c-0.537,0.451-0.77,0.954-0.754,1.629
	c0.038,1.708,0.037,3.24-0.002,4.685c-0.008,0.284,0.015,0.644,0.266,0.901c0.162,0.166,0.382,0.251,0.654,0.251
	c0.108,0,0.234-0.014,0.378-0.042c0.762-0.148,1.536-0.149,2.356-0.15h0.321c0.562,0,0.815,0.136,0.929,0.249l0.188,0.188
	l-0.107,0.555l-0.144,0.115c-0.166,0.132-0.491,0.208-0.894,0.208h-0.113c-2.197,0-4.31,0.337-6.277,1.002
	c-0.785,0.264-1.52,0.633-2.23,0.99c-0.775,0.389-0.766,0.972-0.762,1.221l0.005,0.3c0.016,0.945,0.032,1.902-0.012,2.833
	c-0.008,0.162-0.028,0.59,0.255,0.885c0.282,0.296,0.716,0.296,0.925,0.296c2.18-0.011,4.341-0.014,6.503-0.014l5.917-0.002
	c0.074,0,0.149,0.002,0.223,0.008c0.49,0.036,0.675,0.352,0.685,0.634c0.011,0.387-0.259,0.656-0.67,0.673
	c-0.409,0.014-0.816,0.021-1.224,0.021c-0.431,0-0.861-0.008-1.292-0.021c-0.291,0-0.586,0.03-0.805,0.257
	c-0.254,0.264-0.241,0.627-0.236,0.765c0.029,0.772,0.02,1.545,0.01,2.318l-0.003,0.282c-0.002,0.176-0.006,0.503,0.23,0.742
	c0.158,0.16,0.375,0.238,0.663,0.238c1.957-0.007,3.906-0.008,5.857-0.008l5.337,0.001l0.038-0.459
	c0.039-0.467-0.244-0.734-0.379-0.862c-2.019-2.64-2.575-5.245-1.753-8.025c0.244-0.824-0.168-1.205-0.604-1.47
	c-1.321-0.8-2.74-1.407-4.219-1.807c-0.38-0.104-0.618-0.177-0.751-0.386c-0.082-0.127-0.125-0.253-0.125-0.371v-0.138l0.07-0.118
	c0.088-0.148,0.195-0.295,0.371-0.357l0.105-0.037l0.219,0.021c1.909,0.466,3.502,1.13,4.942,2.045
	c0.162,0.103,0.38,0.221,0.633,0.221c0.37,0,0.614-0.242,0.804-0.479c1.853-2.31,3.973-3.433,6.483-3.433
	c0.857,0,1.768,0.137,2.707,0.406c0.144,0.042,0.276,0.062,0.408,0.062c0.361,0,0.633-0.158,0.851-0.313
	c1.161-0.823,2.456-1.241,3.847-1.241c0.111,0,0.224,0.003,0.336,0.009c1.267,0.06,2.043,0.863,2.079,2.147l0.003,0.108
	c0.006,0.179,0.007,0.268-0.008,0.349c-0.571,2.342-0.384,4.657-0.158,6.417c0.348,2.711-0.422,4.953-2.356,6.854l-0.872,0.856
	h1.222c0.225,0,2.444,0.017,2.444,0.017c0.519,0,1.028-0.008,1.537-0.03c0,0,0.179-0.005,0.18-0.005
	c0.855,0,1.405,0.267,1.795,0.864l0.082,0.125v9.957l-0.079,0.123c-0.377,0.592-0.916,0.88-1.646,0.88
	c-0.101,0-0.205-0.006-0.312-0.016c-0.102-0.011-0.202-0.014-0.302-0.014l-0.433,0.008c-1.79,0-2.015,0.226-2.015,2.01
	c0,3.057-1.542,4.607-4.58,4.608h0L9.351,75.489z M8.249,68.873c-1.904,0-2.125,0.218-2.151,2.118
	c-0.013,0.925,0.116,1.969,1.168,2.701c0.694,0.481,1.461,0.481,2.138,0.481l59.726-0.003c1.781-0.061,2.822-1.126,2.839-2.921
	c0.001-0.121-0.002-0.242-0.006-0.362c-0.008-0.235-0.012-0.409,0.011-0.58c0.043-0.334,0.057-0.759-0.226-1.081
	c-0.29-0.331-0.743-0.373-1.104-0.373c-5.634,0.018-11.257,0.021-16.879,0.021l-11.635,0.003c-0.084,0-0.167-0.003-0.25-0.01
	c-0.544-0.047-0.733-0.394-0.73-0.676c0.001-0.14,0.059-0.6,0.735-0.633c0.09-0.006,0.183-0.007,0.274-0.007l12.636,0.002
	c6.885,0,13.77,0.003,20.654,0.02c0.355,0,0.756-0.038,1.031-0.318c0.272-0.277,0.303-0.664,0.296-1.04
	c-0.05-2.529-0.048-4.632,0.004-6.617c0.009-0.322-0.017-0.729-0.294-1.014c-0.307-0.315-0.758-0.315-1.056-0.315
	c-7.956,0.012-15.901,0.015-23.847,0.015H26.192c-7.864,0-15.726-0.003-23.589-0.017c-0.245,0-0.704,0-1.009,0.312
	c-0.27,0.274-0.299,0.656-0.293,0.992c0.046,2.401,0.045,4.566-0.002,6.619c-0.009,0.357,0.021,0.763,0.305,1.053
	c0.32,0.328,0.822,0.328,1.063,0.328c6.926-0.014,13.837-0.017,20.75-0.017l12.983-0.001c0.121,0,0.241,0.002,0.361,0.013
	c0.116,0.012,0.212,0.037,0.291,0.076l0.258,0.126l0.022,0.286c0.015,0.206,0.009,0.308-0.025,0.404l-0.117,0.335h-0.242
	c-0.023,0.01-0.049,0.021-0.078,0.03c-0.126,0.047-0.271,0.054-0.409,0.054l-0.417-0.007L8.249,68.873z M14.834,52.019
	c-0.219,0.001-0.628,0.002-0.905,0.295c-0.275,0.292-0.253,0.706-0.246,0.861c0.051,0.962,0.05,1.8-0.002,2.563
	c-0.012,0.169-0.042,0.618,0.248,0.93c0.29,0.311,0.717,0.311,0.972,0.311c2.749-0.012,5.481-0.015,8.211-0.015l7.816,0.002
	l0.06-0.432c0.029-0.148,0.053-0.269,0.008-0.416c-0.375-1.273-0.331-2.346,0.131-3.188c0.456-0.834,1.321-1.439,2.57-1.802
	c0.548-0.158,0.778-0.479,0.771-1.071c-0.012-1.032-0.009-2.063-0.007-3.095l0.001-0.758c0-0.191,0.001-0.589-0.297-0.957
	c-1.021-1.263-2.229-2.716-3.653-3.975c-0.5-0.443-1.004-0.641-1.635-0.641l-0.143,0.002c-1.596,0-2.897-1.146-3.1-2.726
	c-0.093-0.725-0.508-1.031-0.902-1.234c-1.715-0.887-3.548-1.266-5.132-1.552c-0.083-0.016-0.155-0.021-0.218-0.021
	c-0.43,0-0.703,0.244-0.836,0.748c-0.093,0.341-0.172,0.65-0.25,0.956l-0.025,0.099c-0.189,0.739-0.361,1.409-0.583,2.075
	c-0.238,0.717-0.021,1.124,0.75,1.405c3.558,1.302,6.438,3.393,8.56,6.215c0.782,1.041,1.208,1.909,1.383,2.815
	c0.203,1.045-0.177,1.711-1.194,2.095c-0.752,0.283-1.569,0.364-2.269,0.405c-1.886,0.11-3.74,0.124-5.145,0.124
	c-0.761,0-1.522-0.005-2.284-0.01C16.72,52.022,14.834,52.019,14.834,52.019z M9.73,56.956c0.538,0,1.076,0.005,1.613,0.021
	c0.479,0,0.678-0.139,0.796-0.26c0.261-0.269,0.25-0.637,0.245-0.834c-0.024-0.897-0.042-1.775,0.005-2.659
	c0.009-0.168,0.033-0.612-0.258-0.926c-0.288-0.311-0.723-0.321-0.887-0.325c-1.118-0.027-1.907-0.579-2.415-1.688
	c-0.459-1.002-1.106-1.914-1.921-2.712L6.8,47.464c-0.242-0.248-0.539-0.552-1.03-0.626l-0.456-0.067L5.21,47.22
	c-0.036,0.111-0.065,0.223-0.042,0.36l0.542,3.14c0.313,1.81,0.626,3.62,0.933,5.434c0.092,0.55,0.434,0.816,1.044,0.816
	l0.425-0.004C8.651,56.961,9.19,56.956,9.73,56.956z M41.435,56.962c0.743,0,1.485,0.002,2.228,0.012c0.196,0,0.58,0,0.843-0.275
	c0.265-0.276,0.249-0.655,0.242-0.798c-0.038-0.888-0.038-1.68,0.001-2.421c0.008-0.15,0.03-0.547-0.239-0.831
	c-0.268-0.282-0.678-0.282-0.854-0.282c-1.414,0.009-2.803,0.01-4.192,0.01c0,0-4.021,0-5.017,0.004
	c-1.408,0.006-2.402,0.939-2.416,2.27c-0.006,0.63,0.212,1.202,0.614,1.611c0.439,0.447,1.089,0.696,1.832,0.702
	c0.566,0.004,3.052,0.004,3.052,0.004L41.435,56.962z M64.247,42.63c-3.89,0-7.144,3.209-7.254,7.152
	c-0.078,2.773,1.607,5.568,4.099,6.797c0.279,0.137,0.521,0.201,0.762,0.201c0.267,0,0.534-0.084,0.793-0.25
	c1.125-0.72,2.213-1.446,3.143-2.412c1.35-1.402,1.62-2.82,0.85-4.462c-0.813-1.732-1.001-3.52-0.56-5.31
	c0.156-0.632,0.227-0.975,0.006-1.281c-0.224-0.312-0.567-0.353-1.26-0.411C64.628,42.638,64.437,42.63,64.247,42.63z M66.01,56.364
	c0.185,0.229,0.419,0.35,0.677,0.35c0.176,0,0.319-0.057,0.414-0.094l0.051-0.021l0.055-0.009c3.916-0.614,5.883-3.088,5.542-6.967
	c-0.03-0.34-0.065-0.679-0.1-1.019c-0.148-1.421-0.286-2.74-0.069-4.078l0.122-0.712c0.061-0.348,0.12-0.692,0.171-1.039
	c0.024-0.168,0.09-0.616-0.19-0.94c-0.174-0.2-0.424-0.302-0.744-0.302l-0.05,0.002c-2.733,0.093-4.383,1.439-4.648,3.793
	c-0.153,1.361,0.094,2.725,0.778,4.29c0.408,0.934,0.521,1.695,0.367,2.47c-0.306,1.544-1.299,2.64-2.326,3.595l-0.341,0.318
	L66.01,56.364z M23.414,48.211c0,1.761,0.109,2.479,1.206,2.479c0.357,0,0.806-0.09,1.485-0.226
	c0.232-0.046,0.669-0.133,0.861-0.507c0.188-0.367,0.004-0.774-0.065-0.928c-0.56-1.23-1.374-2.325-2.639-3.548l-0.847-0.818V48.211
	z M31.666,40.555c1.237,1.12,2.273,2.254,3.168,3.467c0.207,0.28,0.457,0.423,0.741,0.423c0.172,0,0.351-0.055,0.547-0.167
	c0.88-0.507,1.865-0.91,3.01-1.231c0.525-0.147,0.779-0.479,0.776-1.015c-0.009-1.463-0.011-2.927,0-4.39
	c0.001-0.124,0.003-0.452-0.219-0.676c-0.123-0.123-0.291-0.191-0.475-0.191c-0.173,0-0.343,0.062-0.456,0.107
	c-1.748,0.722-3.499,1.435-5.307,2.17l-2.376,0.969L31.666,40.555z M14.145,39.585c0.135,0,0.302,0.034,0.489,0.075
	c0.194,0.041,0.417,0.088,0.636,0.088c0.311,0,0.569-0.097,0.768-0.289c0.37-0.355,0.47-0.895,0.558-1.37
	c0.037-0.2,0.067-0.355,0.108-0.498c0.093-0.325,0.184-0.648,0.271-0.974c0.207-0.775,0.294-1.162,0.031-1.505
	c-0.249-0.324-0.677-0.351-1.131-0.351l-0.352,0.004c-1.173,0-1.856-0.434-2.286-1.45c-0.352-0.833-0.889-1.654-1.643-2.51
	c-0.262-0.298-0.564-0.594-0.98-0.959c-0.135-0.118-0.328-0.184-0.544-0.184c-0.107,0-0.212,0.016-0.304,0.046
	c-0.188,0.062-0.485,0.25-0.378,0.837l0.058,0.311c0.492,2.67,0.983,5.339,1.449,8.013c0.1,0.571,0.41,0.861,0.922,0.861
	c0.071,0,0.15-0.005,0.239-0.017c0.433-0.053,0.867-0.071,1.301-0.09l0.775-0.039H14.145z M33.985,33.189
	c-0.287,0-0.573,0.123-1.047,0.328l-1.451,0.625c-1.122,0.481-2.243,0.963-3.358,1.457c-0.947,0.422-1.388,1.26-1.178,2.242
	c0.184,0.857,0.95,1.47,1.863,1.487l0.151,0.005c0.283,0,0.55-0.111,0.765-0.2l0.101-0.042c1.388-0.554,2.768-1.108,4.144-1.674
	c0.141-0.058,0.301-0.108,0.462-0.158c0.556-0.175,1.164-0.365,1.396-0.863c0.244-0.523-0.043-1.031-0.413-1.593
	c-0.128-0.193-0.214-0.326-0.277-0.455C34.754,33.542,34.527,33.189,33.985,33.189z M38.26,27.67c0.115,0,0.242,0.038,0.366,0.11
	c0.053,0.028,0.113,0.069,0.166,0.114l0.31,0.261l-0.192,0.357c-0.119,0.223-0.229,0.439-0.34,0.657
	c-0.49,0.963-0.952,1.871-1.781,2.443c-0.335,0.23-0.73,0.561-0.81,1.059c-0.085,0.538,0.254,0.984,0.382,1.152
	c0.688,1.369,0.993,1.855,1.659,1.855c0.458,0,0.94-0.289,1.74-0.768c2.544-1.524,3.916-3.573,4.077-6.091
	c0.101-1.586,0.103-3.198,0.096-4.583c-0.013-2.8-1.783-4.549-4.621-4.564l-0.219-0.001c-1.185,0-1.368,0.303-1.47,1.507
	c-0.201,2.381-2.173,4.247-4.49,4.247c-0.259,0-0.518-0.023-0.771-0.068c-1.973-0.35-3.568-2.295-3.631-4.429
	c-0.029-1.005-0.522-1.234-1.307-1.278c-0.119-0.006-0.236-0.01-0.351-0.01c-1.806,0-3.231,0.847-4.237,2.519
	c-1.338,2.226-2.705,4.436-4.071,6.644l-2.052,3.325c-0.164,0.237-0.348,0.503-0.31,0.908l0.039,0.4l1.184,0.13
	c0.675,0.069,1.267,0.131,1.852,0.23c0.103,0.018,0.197,0.025,0.285,0.025c0.589,0,0.884-0.368,1.075-0.689
	c0.459-0.771,0.932-1.535,1.403-2.3l0.928-1.507c0.157-0.258,0.255-0.376,0.372-0.449l0.096-0.06l0.14-0.016l0.124-0.008h0.185
	l0.141,0.12c0.209,0.18,0.453,0.476,0.146,0.977c-0.479,0.79-0.965,1.578-1.456,2.373l-1.128,1.831l0.57,0.213
	c0.241,0.09,0.482,0.173,0.719,0.253c0.483,0.164,0.983,0.334,1.418,0.562c0.414,0.214,0.769,0.357,1.156,0.357
	c0.487,0,0.905-0.232,1.28-0.711c0.146-0.187,0.411-0.298,0.799-0.446c0.14-0.055,0.244-0.095,0.345-0.138l1.827-0.795
	c1.646-0.716,3.292-1.433,4.944-2.134c0.927-0.394,1.581-0.969,2-1.761c0.323-0.608,0.641-1.122,0.973-1.57l0.15-0.203L38.26,27.67z
	 M30.087,20.207c-0.114,1.067,0.194,2.112,0.845,2.866c0.563,0.652,1.33,1.029,2.158,1.061l0.125,0.002
	c0.763,0,1.496-0.319,2.051-0.897c0.703-0.732,1.078-1.833,1.029-3.022l-0.03-0.725L35.6,19.778
	c-0.812,0.348-1.602,0.517-2.416,0.517c-0.787,0-1.598-0.167-2.411-0.498l-0.615-0.25L30.087,20.207z M30.64,8.097
	c-0.562,0-1.07,0.175-1.554,0.535c-0.635,0.471-1.331,0.935-2.124,1.138c-0.63,0.161-0.913,0.539-0.918,1.228
	c-0.023,3.384,2.551,6.806,5.86,7.792c0.428,0.127,0.863,0.191,1.295,0.191c0.251,0,0.508-0.022,0.763-0.066
	c3.163-0.543,6.241-4.169,6.333-7.461l0.001-0.054l0.013-0.052c0.094-0.381,0.06-0.698-0.104-0.968
	c-0.273-0.447-0.818-0.596-1.315-0.683c-2.304-0.405-4.767-0.9-7.528-1.514C31.104,8.125,30.868,8.097,30.64,8.097z M33.158,1.351
	c-0.301,0-0.606,0.019-0.914,0.058c-3.159,0.398-5.528,2.931-6.036,6.453l-0.122,0.847l0.798-0.31
	c0.546-0.211,0.992-0.522,1.385-0.796c0.133-0.093,0.264-0.184,0.397-0.271c0.625-0.408,1.223-0.605,1.826-0.605
	c0.191,0,0.387,0.02,0.581,0.06l2.383,0.482c1.794,0.363,3.588,0.726,5.378,1.105c0.2,0.042,0.357,0.062,0.495,0.062
	c0.397,0,0.601-0.178,0.702-0.327c0.227-0.335,0.099-0.758-0.017-1.046l-0.053-0.132l0.024-0.141
	C39.127,3.548,36.391,1.351,33.158,1.351z"/>
</svg>
