<svg id="medicine" xmlns="http://www.w3.org/2000/svg" xmlns:xlink="http://www.w3.org/1999/xlink" width="73.898" height="73.893" viewBox="0 0 73.898 73.893">
  <defs>
    <clipPath id="clip-path">
      <rect id="Rectangle_25" data-name="Rectangle 25" width="73.898" height="73.894" fill="#FAB502"/>
    </clipPath>
  </defs>
  <g id="Group_50" data-name="Group 50" clip-path="url(#clip-path)">
    <path id="Path_193" data-name="Path 193" d="M28.821,73.894a4.948,4.948,0,0,1-4.943-4.943V67.58l-.424-.1A26.228,26.228,0,0,1,3.3,42V39l-.405-.111A3.917,3.917,0,0,1,3.92,31.2H5.144l-.777-.908A18.134,18.134,0,0,1,.672,13.6,2,2,0,0,1,2.05,12.218a18.185,18.185,0,0,1,17.724,4.645,18.009,18.009,0,0,1,5.313,12.685l.008,1.26,9.5-8.907a.548.548,0,0,1,.75.8l-9.062,8.5h11.8l.158-.145a16.974,16.974,0,0,0,4.9-17.163.89.89,0,0,0-.617-.615,17.008,17.008,0,0,0-4.575-.626A17.2,17.2,0,0,0,25.97,17.535a.548.548,0,0,1-.768-.782,18.313,18.313,0,0,1,12.744-5.2,18.1,18.1,0,0,1,4.869.666A2,2,0,0,1,44.193,13.6a18.173,18.173,0,0,1,.473,2.24l.151,1.029.766-.7c.879-.809,1.683-1.612,2.456-2.453,2.272-2.478,4.51-5.058,6.656-7.67l.3-.367-.318-.352A3.185,3.185,0,0,1,59.293.931L72.965,14.6a3.229,3.229,0,0,1,0,4.5,3.213,3.213,0,0,1-2.262.917,3.132,3.132,0,0,1-2.119-.8l-.354-.322-.368.306c-2.538,2.113-5.061,4.321-7.5,6.564a49.747,49.747,0,0,0-4.277,4.52l-.766.906H69.981a3.917,3.917,0,0,1,1.028,7.7L70.6,39V42A25.9,25.9,0,0,1,67.758,53.88a.548.548,0,0,1-.977-.5A24.81,24.81,0,0,0,69.507,42V39.032H4.395V42A25.114,25.114,0,0,0,29.48,67.084H44.421a25.462,25.462,0,0,0,4.9-.476l.03-.007a.459.459,0,0,1,.049-.01l.025,0a25.075,25.075,0,0,0,14.664-9.009.548.548,0,0,1,.859.681,25.891,25.891,0,0,1-14.5,9.227l-.425.1v1.366a4.948,4.948,0,0,1-4.943,4.943H28.821Zm-3.846-4.943A3.85,3.85,0,0,0,28.821,72.8H45.08a3.85,3.85,0,0,0,3.846-3.846V67.8L48.3,67.9a26.7,26.7,0,0,1-3.874.286H29.48a26.387,26.387,0,0,1-3.874-.287l-.631-.094ZM3.92,32.294a2.821,2.821,0,1,0,0,5.641h66.06a2.821,2.821,0,1,0,0-5.641ZM55.4,6.9c-2.115,2.568-4.32,5.107-6.556,7.545a42.993,42.993,0,0,1-3.8,3.648l-.192.164v.253A18.192,18.192,0,0,1,40.5,30.289l-.777.908h14.2l.165-.205a55.38,55.38,0,0,1,5.533-6.027c2.4-2.214,4.887-4.39,7.38-6.468l.462-.386L55.789,6.434ZM9.9,21.753a.548.548,0,0,1,.375.148l9.915,9.3h3.745l.031-.518A17.062,17.062,0,0,0,2.344,13.274a.894.894,0,0,0-.617.617,17.192,17.192,0,0,0,4.9,17.162l.158.145h11.8L9.522,22.7a.548.548,0,0,1,.375-.948M57.041,1.095A2.087,2.087,0,0,0,55.565,4.66L69.237,18.332a2.053,2.053,0,0,0,1.473.605,2.088,2.088,0,0,0,1.478-3.56L58.518,1.706a2.073,2.073,0,0,0-1.477-.611M29.48,62.322A20.321,20.321,0,0,1,9.3,44.408a.55.55,0,0,1,.48-.61.589.589,0,0,1,.066,0,.547.547,0,0,1,.542.484A19.226,19.226,0,0,0,29.48,61.226a.548.548,0,1,1,0,1.1" transform="translate(0)" fill="#FAB502"/>
  </g>
</svg>
