<svg id="bb1" xmlns="http://www.w3.org/2000/svg" width="77.828" height="79.094" viewBox="0 0 77.828 79.094">
  <path id="Path_194" data-name="Path 194" d="M69.284,157.685l-.036-.015a37.431,37.431,0,0,0-3.83-1.317c-.513-.155-1.017-.309-1.518-.469q-6.013-1.937-12.032-3.851-6.4-2.041-12.789-4.1a6.8,6.8,0,0,0-2.129-.282c-.229,0-.458.006-.688.011l-.082,0c-.219.005-.439.01-.659.01-.132,0-.263,0-.394-.007a3.457,3.457,0,0,1-1.425-.326q-5.526-2.637-11.055-5.269-6.976-3.323-13.948-6.65a3.031,3.031,0,0,0-1.352-.311l-.905,0-2.683-.006c-1.012,0-1.8.007-2.544.024H1.137a1.4,1.4,0,0,1-1.084-.363L0,134.717v-.564l.054-.056a1.4,1.4,0,0,1,1.081-.361h.079c.921.019,1.9.029,2.979.029,1.1,0,2.2-.01,3.307-.023h.045a3.536,3.536,0,0,1,1.577.366q7.09,3.385,14.186,6.758,5.382,2.561,10.764,5.125a2.648,2.648,0,0,0,1.147.3c.056,0,.112,0,.169-.007h.046c.165,0,.307-.006.449-.006.582,0,1.177.03,1.753.059.594.03,1.2.06,1.8.06a10.158,10.158,0,0,0,2.69-.307,21.82,21.82,0,0,0,3.979-1.667c.693-.346,1.393-.695,2.087-.991,6.1-2.6,12.006-5.791,17.719-8.875,2.148-1.16,4.37-2.359,6.589-3.52a2,2,0,0,0,.24-.154l.066-.046.575-.387-.484-.491a6.048,6.048,0,0,0-4.258-1.6,6.865,6.865,0,0,0-2.41.431c-.109.041-.216.089-.323.136s-.173.077-.253.108a1.107,1.107,0,0,1-.4.081.609.609,0,0,1-.592-.388.65.65,0,0,1,.412-.921,8.06,8.06,0,0,1,7.469.173,7.675,7.675,0,0,1,2.4,1.983c.365.442.409.7.382.842s-.163.358-.655.622q-2.242,1.2-4.495,2.389l-.073.038c-2.735,1.446-5.563,2.941-8.313,4.472-4.156,2.313-8.559,4.312-12.817,6.245-1.47.668-2.928,1.33-4.38,2a.924.924,0,0,1-.1.037,1.278,1.278,0,0,0-.838.679l-.274.588,25.822,8.263.121-.633a4.023,4.023,0,0,0-2.718-4.649c-.545-.2-1.1-.375-1.637-.549-.591-.192-1.188-.386-1.762-.6a.776.776,0,0,1-.528-.538.712.712,0,0,1,.647-.8.783.783,0,0,1,.253.047c.429.145.861.282,1.293.42.861.274,1.751.556,2.588.9a5.53,5.53,0,0,1,2.988,7.084,2.274,2.274,0,0,1-.513.8l-.056.056h-.608Z" transform="translate(0 -78.591)" fill="#FAB502"/>
  <path id="Path_195" data-name="Path 195" d="M119.783,38.987A14.711,14.711,0,0,1,105.6,27.293a13.97,13.97,0,0,1,1.415-9.04.678.678,0,0,1,.61-.428.708.708,0,0,1,.286.062.669.669,0,0,1,.311.971l-.131.307a15.7,15.7,0,0,0-1.218,3.661,12.285,12.285,0,0,0,2.8,9.935A12.864,12.864,0,0,0,119.768,37.6a13.4,13.4,0,0,0,4.6-.82,13.157,13.157,0,0,0,8.521-12.51,15.018,15.018,0,0,0-2-6.381A89.929,89.929,0,0,0,120.579,2.668a1.057,1.057,0,0,0-.79-.465.979.979,0,0,0-.766.474l-.059.075c-2,2.463-3.736,4.76-5.317,7.025l-.06.087a4.531,4.531,0,0,1-.276.372.789.789,0,0,1-.58.312.642.642,0,0,1-.386-.138.624.624,0,0,1-.139-.944c1.26-1.787,2.3-3.208,3.26-4.473.936-1.228,1.926-2.445,2.884-3.622l.426-.524c.192-.237.41-.457.64-.69L119.571,0h.463l.056.057a37.783,37.783,0,0,1,2.937,3.506l.439.567a77.578,77.578,0,0,1,8.887,13.633,15.675,15.675,0,0,1,1.917,7.215,14.633,14.633,0,0,1-13.457,13.97C120.473,38.974,120.127,38.987,119.783,38.987Z" transform="translate(-65.208)" fill="#FAB502"/>
  <path id="Path_196" data-name="Path 196" d="M.6,105.15c-.144,0-.263-.054-.55-.362L0,104.733v-.519l.059-.056a2.4,2.4,0,0,1,.932-.518,51.373,51.373,0,0,1,11.863-2.767c.1-.009.205-.015.3-.015.442,0,.6.123.735.337a.614.614,0,0,1,.049.608.78.78,0,0,1-.646.4,41.637,41.637,0,0,0-7.1,1.265c-1.276.368-2.558.78-3.8,1.179l-.988.317A3.188,3.188,0,0,1,.6,105.15Z" transform="translate(0 -62.425)" fill="#FAB502"/>
  <path id="Path_197" data-name="Path 197" d="M68.876,132.3a.673.673,0,0,1-.7-.535.584.584,0,0,1,.09-.49.983.983,0,0,1,.59-.341c3.9-.874,7.047-1.571,9.914-2.193a3.929,3.929,0,0,0,1.832-.907c1.035-.91,2.095-1.81,3.119-2.681a96.316,96.316,0,0,0,8.135-7.476c.026-.028.056-.057.088-.087a1.084,1.084,0,0,0,.471-.911.984.984,0,0,0-.931-.774c-.057-.01-.091-.016-.123-.025a4.559,4.559,0,0,0-4.166.907c-2.69,2.075-5.528,4.051-8.273,5.961l-.851.593a4.1,4.1,0,0,1-1.978.506,10.988,10.988,0,0,0-1.135.147c-.675.135-1.376.242-2.053.345-.7.106-1.461.221-2.187.367a2.042,2.042,0,0,1-.407.043,2.181,2.181,0,0,1-1.013-.277,102.2,102.2,0,0,0-14.176-6.138,18.849,18.849,0,0,0-4.786-1.054c-.67-.039-.989-.274-.973-.716s.375-.65,1.162-.65h.068a25.943,25.943,0,0,1,5.978,1.466,100.751,100.751,0,0,1,12.791,5.594,2.782,2.782,0,0,0,1.28.326,2.86,2.86,0,0,0,.49-.043c1.649-.288,3.407-.58,5.7-.948a2.481,2.481,0,0,0,1.082-.5c1.11-.81,2.25-1.62,3.353-2.4,1.777-1.262,3.592-2.551,5.34-3.881a5.8,5.8,0,0,1,3.54-1.186,5.981,5.981,0,0,1,4.018,1.546,1.11,1.11,0,0,1,.441.665,1.159,1.159,0,0,1-.4.725A133.8,133.8,0,0,1,83,127.567q-1.157.984-2.31,1.972a1.434,1.434,0,0,1-.659.3q-2.693.6-5.383,1.2l-.507.114q-2.508.56-5.016,1.118A1.209,1.209,0,0,1,68.876,132.3Z" transform="translate(-30.549 -70.767)" fill="#FAB502"/>
  <path id="Path_198" data-name="Path 198" d="M145.446,164.363a.618.618,0,0,1-.7-.513c-.059-.29.026-.673.774-.848l18.7-4.4a3.678,3.678,0,0,0,.373-.116l.226-.077.882-.289-.655-.658a6.5,6.5,0,0,0-4.791-2.067c-.123,0-.247,0-.373.009-.207.01-.4.037-.589.062l-.065-.183.025.189c-.132.018-.264.035-.4.045l-.084,0a.664.664,0,0,1-.714-.522.642.642,0,0,1,.536-.78,8.838,8.838,0,0,1,1.782-.189,7.745,7.745,0,0,1,5.1,1.958,7.232,7.232,0,0,1,1.713,2.139,1.093,1.093,0,0,1,.176.869,1.019,1.019,0,0,1-.716.417q-4.979,1.189-9.963,2.356l-2.576.606q-4.142.975-8.287,1.943A1.676,1.676,0,0,1,145.446,164.363Z" transform="translate(-89.58 -95.333)" fill="#FAB502"/>
  <path id="Path_199" data-name="Path 199" d="M75.054,112.537a1.218,1.218,0,0,1-.7-.288l-.811-.612c-1.346-1.016-2.737-2.066-4.088-3.137a23.931,23.931,0,0,0-9.131-4.46l-.082-.02a2.478,2.478,0,0,1-.586-.192.582.582,0,0,1-.335-.74.644.644,0,0,1,.626-.516l.033,0,.033.007a23.6,23.6,0,0,1,3.29.95,24.7,24.7,0,0,1,6.913,3.838c1.043.821,2.108,1.628,3.138,2.407q.923.7,1.841,1.4c.487.374.6.742.349,1.1A.584.584,0,0,1,75.054,112.537Z" transform="translate(-36.696 -63.482)" fill="#FAB502"/>
  <path id="Path_200" data-name="Path 200" d="M155.247,70.821a.614.614,0,0,1-.491-.279c-.271-.355-.189-.7.243-1.037a8.3,8.3,0,0,0,3.364-6.368c.037-.673.26-1,.683-1a.523.523,0,0,1,.405.141c.111.115.292.428.272,1.242a9.519,9.519,0,0,1-3.9,7.067A.993.993,0,0,1,155.247,70.821Z" transform="translate(-95.687 -38.459)" fill="#FAB502"/>
  <path id="Path_201" data-name="Path 201" d="M46.975,102.064a.7.7,0,0,1-.65-.718.65.65,0,0,1,.682-.656.7.7,0,0,1,.7.691.746.746,0,0,1-.7.684Z" transform="translate(-28.672 -62.321)" fill="#FAB502"/>
  <path id="Path_202" data-name="Path 202" d="M116.479,36.535a.672.672,0,0,1-.008-1.343.693.693,0,0,1,.5.2.674.674,0,0,1-.49,1.14h-.005Z" transform="translate(-71.683 -21.782)" fill="#FAB502"/>
  <path id="Path_203" data-name="Path 203" d="M142.151,86.9a.688.688,0,0,1-.68-.706.681.681,0,1,1,.687.706h-.007Z" transform="translate(-87.561 -52.944)" fill="#FAB502"/>
</svg>
